<svg xmlns="http://www.w3.org/2000/svg" viewBox="0 0 142 201.52"><defs><style>.cls-1{fill:#58556c;}.cls-1,.cls-10,.cls-11,.cls-12,.cls-2,.cls-3,.cls-4,.cls-5,.cls-6,.cls-7,.cls-8,.cls-9{fill-rule:evenodd;}.cls-2{fill:#e4ae7c;}.cls-3{fill:#d67f54;}.cls-4{fill:#20201e;}.cls-5{fill:#da9077;}.cls-6{fill:#3f2716;}.cls-7{fill:#35253d;}.cls-8{fill:#2e1e11;}.cls-9{fill:#fff;}.cls-10{fill:#67627e;}.cls-11{fill:#383546;}.cls-12{fill:#432d4c;}</style></defs><g id="Layer_2" data-name="Layer 2"><g id="OBJECTS"><path class="cls-1" d="M71,200.78H0c-.82-36.3,27.1-57.37,51.08-65.23,1.95-10.13,1.45-23.26,1.45-23.26h36.9s-.5,13.13,1.45,23.26c24,7.86,51.91,28.93,51.09,65.23Z"/><path class="cls-2" d="M31.93,83.17C31.76,81.28,24,79,21.4,85.24s2.08,15,10.87,15.7,6.21-.86,6.21-.86Z"/><path class="cls-2" d="M110.26,83.17c.18-1.89,7.94-4.14,10.53,2.07s-2.07,15-10.87,15.7-6.21-.86-6.21-.86Z"/><path class="cls-3" d="M89.68,125.31c-8,15.28-28.56,16.87-37.39.59.23-3.33.3-6.47.32-8.89H89.4C89.41,119.29,89.48,122.2,89.68,125.31Z"/><path class="cls-2" d="M71,125C25.23,126.1,2.12,13.22,71,16.12,139.89,13.22,116.78,126.1,71,125Z"/><path class="cls-4" d="M55.62,72.61a4.1,4.1,0,1,1-5.73.92A4.1,4.1,0,0,1,55.62,72.61Z"/><path class="cls-4" d="M86.64,72.61a4.1,4.1,0,1,0,5.73.92A4.09,4.09,0,0,0,86.64,72.61Z"/><path class="cls-5" d="M50.57,87.49c2.33,1.79,2.44,4.42.23,5.87s-5.9,1.16-8.24-.63-2.44-4.42-.22-5.87S48.23,85.7,50.57,87.49Z"/><path class="cls-5" d="M91.69,87.49c-2.33,1.79-2.44,4.42-.23,5.87s5.9,1.16,8.24-.63,2.43-4.42.22-5.87S94,85.7,91.69,87.49Z"/><path class="cls-6" d="M57.42,61.48,57,61.29a12.11,12.11,0,0,0-10.12.85c-.74.48-3.64,2.82-2.82,3.68.34.09,3.22-1.38,4.06-1.65a11.47,11.47,0,0,1,3.78-.51,10.31,10.31,0,0,1,3.46.7l.29.13c2.42,1.17,2.2,1.92,3.84.79C62,63.94,59.37,62.49,57.42,61.48Z"/><path class="cls-6" d="M84.59,61.48l.46-.19a12.13,12.13,0,0,1,10.13.85c.74.48,3.63,2.82,2.81,3.68-.33.09-3.21-1.38-4.06-1.65a11.4,11.4,0,0,0-3.78-.51,10.41,10.41,0,0,0-3.46.7l-.29.13c-2.41,1.17-2.19,1.92-3.84.79C80,63.94,82.63,62.49,84.59,61.48Z"/><path class="cls-3" d="M68.85,110a.5.5,0,0,1-.18-.67.49.49,0,0,1,.68-.18,4.85,4.85,0,0,0,2.42.6,4.75,4.75,0,0,0,2.38-.59.49.49,0,0,1,.68.16.5.5,0,0,1-.17.68,5.6,5.6,0,0,1-2.89.74A5.79,5.79,0,0,1,68.85,110Z"/><path class="cls-3" d="M70.63,92a.5.5,0,0,1,0-1,25,25,0,0,0,3.71-.19c.91-.16,1.57-.4,1.57-.81,0-1.43-1.45-10.31-1.45-10.33a.5.5,0,0,1,.41-.57.5.5,0,0,1,.57.41s1.46,9,1.46,10.49c0,1-1,1.55-2.4,1.78A24.84,24.84,0,0,1,70.63,92Z"/><path class="cls-3" d="M118,90.15a.5.5,0,0,1-1,0,4.79,4.79,0,0,0-.68-3,1.15,1.15,0,0,0-.92-.46,2.77,2.77,0,0,0-1.36.41,8.89,8.89,0,0,0-3.39,4,18.75,18.75,0,0,0-.85,2.3,3.55,3.55,0,0,1,2.31-.67,2.18,2.18,0,0,1,1.07.38,1.78,1.78,0,0,1,.67.94,3.28,3.28,0,0,1-.68,2.69.51.51,0,0,1-.69.13.5.5,0,0,1-.14-.69,2.31,2.31,0,0,0,.56-1.85.76.76,0,0,0-.29-.41,1.34,1.34,0,0,0-.59-.21,2.76,2.76,0,0,0-2.12.89,1.07,1.07,0,0,1-.5.32.54.54,0,0,1-.72-.48v0a1.57,1.57,0,0,1,0-.57,15.64,15.64,0,0,1,1-3.14,9.94,9.94,0,0,1,3.82-4.47,3.56,3.56,0,0,1,1.86-.54,2.13,2.13,0,0,1,1.67.82A5.75,5.75,0,0,1,118,90.15Z"/><path class="cls-3" d="M25,90.15a.5.5,0,0,1-1,0,5.68,5.68,0,0,1,.91-3.6,2.12,2.12,0,0,1,1.67-.82,3.59,3.59,0,0,1,1.86.54,10,10,0,0,1,3.81,4.47,15,15,0,0,1,1,3.14,1.61,1.61,0,0,1,0,.57v0a.54.54,0,0,1-.71.48,1,1,0,0,1-.51-.32A2.76,2.76,0,0,0,30,93.75a1.29,1.29,0,0,0-.59.21.83.83,0,0,0-.3.41,2.35,2.35,0,0,0,.56,1.85.5.5,0,0,1-.82.56,3.29,3.29,0,0,1-.69-2.69,1.84,1.84,0,0,1,.67-.94,2.25,2.25,0,0,1,1.07-.38,3.52,3.52,0,0,1,2.31.67,18.75,18.75,0,0,0-.85-2.3,8.89,8.89,0,0,0-3.39-4,2.74,2.74,0,0,0-1.35-.41,1.19,1.19,0,0,0-.93.46A4.87,4.87,0,0,0,25,90.15Z"/><path class="cls-7" d="M121.65,25.51c1.91.36,1.66,1.93-3.9,5.86,5.14,6.48,5.93,16.77,4.17,26.43-.37,2.06-6.17,16.67-11.64,26.25-.51.89-.17-19-5.91-26.92-2.91-4-5.31-8.8-11.25-12.78-.06,1.13,3.47,4.21,2.15,4.83-5,2.37-19.19-.08-25.74-1.74,1.88,1.94,3.81,3.35,3.08,4.06-2.25,2.21-16.49-1.24-25.29-7.15-2.13,7-5.14,14.51-8.52,16.5-9.06,5.32-5.11,27.82-7.48,24.51-10.9-15.16-8.16-34.79-8.16-34.79a54.08,54.08,0,0,0-3.09,4.85c-1.5,3.13-2.53-25.64,11.15-29.37,0,0-2.16-.75-7.71.29-2,.39,4-5.23,10.52-6,.19-2.83,1.45-14.2,9.77-17.87C47.65.81,54-.35,53.17.14a12.07,12.07,0,0,0-5.1,5.74c30.42-14.36,44.27.9,56.19,10.47C107.87,19.24,115.5,25,121.65,25.51Z"/><path class="cls-8" d="M52.19,63.12a14.68,14.68,0,1,1-10.37,4.3,14.59,14.59,0,0,1,10.37-4.3Zm8.62,6.05a12.19,12.19,0,1,0,3.57,8.62A12.2,12.2,0,0,0,60.81,69.17Z"/><path class="cls-8" d="M89.82,63.12a14.66,14.66,0,1,1-10.38,4.3,14.61,14.61,0,0,1,10.38-4.3Zm8.61,6.05A12.19,12.19,0,1,0,102,77.79,12.15,12.15,0,0,0,98.43,69.17Z"/><path class="cls-8" d="M38.32,76.59A1,1,0,1,1,39,78.45L30.25,81.6a1,1,0,0,1-.67-1.86Z"/><path class="cls-8" d="M103.05,78.45a1,1,0,0,1,.67-1.86l8.74,3.15a1,1,0,0,1-.67,1.86Z"/><path class="cls-8" d="M65.83,76.65a1,1,0,1,1-1.69-1s1.68-2.86,6.86-2.86,6.86,2.85,6.86,2.86a1,1,0,1,1-1.69,1s-1.11-1.9-5.17-1.9S65.84,76.64,65.83,76.65Z"/><path class="cls-9" d="M86.53,96.73C80.3,99.05,61.36,99,55.48,97,58.73,108.85,83.37,108.66,86.53,96.73Z"/><path class="cls-10" d="M51.89,123.23c-.51-.22-1.81-.2-1.81.72s.93,4.4.27,6.93-1.88,4.85-.52,5.38a59.86,59.86,0,0,0,42.31,0c1.36-.53.18-2.72-.52-5.38s.26-5.94.26-6.93-1.3-.94-1.81-.72A48.41,48.41,0,0,1,51.89,123.23Z"/><path class="cls-11" d="M19.24,180.24a.75.75,0,0,1,.75-.74.74.74,0,0,1,.73.75l-.18,20.54a.74.74,0,1,1-1.48,0Z"/><path class="cls-11" d="M121.46,180.24a.75.75,0,0,1,1.49,0l-.18,20.54a.75.75,0,0,1-1.49,0Z"/><path class="cls-1" d="M53.46,125.55a.48.48,0,0,1,.5-.48.49.49,0,0,1,.48.51c0,.68,0,1.31,0,2,0,1.32,0,2.65-.16,4.21a11,11,0,0,1-1.55,4.56.49.49,0,0,1-.83-.53,10.07,10.07,0,0,0,1.39-4.11c.13-1.58.14-2.86.16-4.13C53.43,126.87,53.43,126.21,53.46,125.55Z"/><path class="cls-1" d="M57.53,127a.49.49,0,1,1,1,0c0,.67,0,1.31,0,1.95,0,1.31,0,2.64-.16,4.21a11.13,11.13,0,0,1-1.55,4.56.49.49,0,1,1-.83-.53,10.22,10.22,0,0,0,1.39-4.11c.13-1.58.14-2.87.16-4.14C57.5,128.31,57.5,127.66,57.53,127Z"/><path class="cls-1" d="M61.79,127.78a.49.49,0,0,1,.51-.47.48.48,0,0,1,.48.5c0,.68,0,1.32,0,2,0,1.31,0,2.64-.16,4.21A11,11,0,0,1,61,138.53a.49.49,0,1,1-.83-.53,10.07,10.07,0,0,0,1.39-4.11c.13-1.57.14-2.86.16-4.13C61.76,129.1,61.77,128.45,61.79,127.78Z"/><path class="cls-1" d="M66.19,128.57a.5.5,0,0,1,1,0c0,.68,0,1.31,0,2,0,1.31,0,2.65-.16,4.21a11.05,11.05,0,0,1-1.54,4.56.49.49,0,1,1-.83-.53A10,10,0,0,0,66,134.68c.14-1.58.15-2.87.17-4.13Q66.16,129.56,66.19,128.57Z"/><path class="cls-1" d="M87.05,125.58a.49.49,0,1,1,1,0c0,.66,0,1.32,0,2,0,1.27,0,2.55.16,4.13a10.07,10.07,0,0,0,1.39,4.11.49.49,0,0,1-.83.53,11,11,0,0,1-1.55-4.56c-.13-1.56-.14-2.89-.16-4.21C87.08,126.89,87.07,126.26,87.05,125.58Z"/><path class="cls-1" d="M83,127a.49.49,0,1,1,1,0c0,.66,0,1.31,0,2,0,1.27,0,2.56.16,4.14a10.22,10.22,0,0,0,1.39,4.11.49.49,0,1,1-.83.53,11.13,11.13,0,0,1-1.55-4.56C83,131.62,83,130.29,83,129,83,128.34,83,127.7,83,127Z"/><path class="cls-1" d="M78.71,127.81a.48.48,0,0,1,.48-.5.49.49,0,0,1,.51.47c0,.67,0,1.32,0,2,0,1.27,0,2.56.16,4.13A10.07,10.07,0,0,0,81.28,138a.49.49,0,1,1-.83.53A11,11,0,0,1,78.91,134c-.13-1.57-.15-2.9-.16-4.21C78.74,129.13,78.73,128.49,78.71,127.81Z"/><path class="cls-1" d="M74.31,128.6a.5.5,0,0,1,1,0c0,.66,0,1.32,0,2,0,1.26,0,2.55.16,4.13a10,10,0,0,0,1.38,4.11.49.49,0,1,1-.83.53,11.05,11.05,0,0,1-1.54-4.56c-.13-1.56-.15-2.9-.16-4.21C74.34,129.91,74.33,129.28,74.31,128.6Z"/><path class="cls-1" d="M70.3,128.59a.5.5,0,0,1,.5-.5.49.49,0,0,1,.49.5l0,10.47a.5.5,0,0,1-.5.49.49.49,0,0,1-.49-.49Z"/><path class="cls-12" d="M43.89,21.68A.51.51,0,0,1,44.1,21a.49.49,0,0,1,.67.2c2.72,5.05,8.39,9.5,14.92,13a79.64,79.64,0,0,0,24.89,8.5.49.49,0,0,1-.14,1,80.71,80.71,0,0,1-25.23-8.6C52.53,31.5,46.72,26.92,43.89,21.68Z"/><path class="cls-12" d="M49.45,17.34a.5.5,0,0,1,0-1A70.1,70.1,0,0,1,71.63,20a80.41,80.41,0,0,1,21,10.71,51.73,51.73,0,0,1,15,15.49A47.72,47.72,0,0,1,114,68a.5.5,0,0,1-1,.07,46.73,46.73,0,0,0-6.3-21.4A50.73,50.73,0,0,0,92,31.5,79.52,79.52,0,0,0,71.32,20.92,69.28,69.28,0,0,0,49.45,17.34Z"/><path class="cls-12" d="M53.07,12.83a.48.48,0,0,1-.65-.24.49.49,0,0,1,.24-.66c20.35-9.37,33.61,0,45,8,2.82,2,5.53,3.89,8.19,5.41a.49.49,0,0,1,.19.67.51.51,0,0,1-.68.19c-2.71-1.54-5.43-3.46-8.27-5.46C85.91,12.85,72.91,3.7,53.07,12.83Z"/><path class="cls-12" d="M39.81,30a.51.51,0,0,1,.47-.52.49.49,0,0,1,.52.47,29.18,29.18,0,0,1-1.91,10.19,35.18,35.18,0,0,1-5,9.71A19.72,19.72,0,0,0,30,60.71a.5.5,0,1,1-1,0,20.8,20.8,0,0,1,4.1-11.46A34,34,0,0,0,38,39.81,28.24,28.24,0,0,0,39.81,30Z"/></g></g></svg>