<svg width="1840" height="1733" viewBox="0 0 1840 1733" fill="none" xmlns="http://www.w3.org/2000/svg">
<path d="M1839.26 473.52C1839.27 477.226 1838.59 480.9 1837.26 484.36H1720.94C1720.86 484.28 1720.82 484.2 1720.74 484.12C1720.73 484.205 1720.7 484.287 1720.66 484.36C1720.66 484.36 1717.54 484.36 1711.9 484.44C1654.34 484.76 1332.58 486.56 1332.58 483.72C1332.58 450.92 1357.66 424.36 1388.58 424.36C1395.61 424.348 1402.57 425.735 1409.06 428.44C1415.04 423.284 1422.68 420.445 1430.58 420.44C1436.26 420.487 1441.84 421.957 1446.81 424.718C1451.78 427.478 1455.98 431.439 1459.02 436.24C1459.1 436.08 1459.18 435.88 1459.26 435.72C1465.26 422.96 1476.94 412.2 1492.06 405.16C1505.16 399.144 1519.41 396.072 1533.82 396.16C1538.17 396.163 1542.51 396.43 1546.82 396.96C1563.1 365.2 1594.9 343.6 1631.46 343.6C1678.22 343.6 1717.26 378.96 1725.94 425.84C1731.3 422.295 1737.59 420.403 1744.02 420.4C1757.34 420.4 1768.9 428.4 1774.62 440.08C1780.67 437.917 1787.04 436.821 1793.46 436.84C1811.54 436.84 1827.14 445.24 1834.58 457.4C1837.61 462.234 1839.23 467.816 1839.26 473.52V473.52Z" fill="#F4A4A4"/>
<path opacity="0.4" d="M1834.62 457.44C1819.78 453.44 1803.9 453.6 1788.38 453.8L1684.5 455C1643.02 455.48 1606.06 431.76 1563.66 435.6C1543.34 437.48 1522.66 445.76 1503.14 446.92C1487.66 447.84 1468.82 445.08 1459.26 435.72C1465.26 422.96 1476.94 412.2 1492.06 405.16C1505.16 399.144 1519.41 396.072 1533.82 396.16C1538.17 396.163 1542.51 396.43 1546.82 396.96C1563.1 365.2 1594.9 343.6 1631.46 343.6C1678.22 343.6 1717.26 378.96 1725.94 425.84C1731.3 422.295 1737.59 420.403 1744.02 420.4C1757.34 420.4 1768.9 428.4 1774.62 440.08C1780.67 437.917 1787.04 436.821 1793.46 436.84C1811.58 436.88 1827.18 445.28 1834.62 457.44Z" fill="white"/>
<path d="M333.34 695.52C333.337 697.958 332.876 700.373 331.98 702.64H255.66C255.588 702.609 255.531 702.552 255.5 702.48C255.5 702.56 255.5 702.6 255.5 702.64C255.5 702.68 0.699951 704.28 0.699951 702.2C0.699951 680.68 17.14 663.2 37.46 663.2C42.0728 663.199 46.6403 664.11 50.9 665.88C54.8355 662.531 59.8323 660.688 64.9999 660.68C68.7234 660.711 72.3803 661.671 75.6387 663.474C78.8972 665.276 81.6542 667.863 83.6599 671C89.1799 658.84 102.5 649.44 119.14 646.12C123.625 645.179 128.197 644.71 132.78 644.72C135.641 644.71 138.501 644.884 141.34 645.24C152.02 624.4 172.9 610.24 196.9 610.24C227.62 610.24 253.22 633.48 258.9 664.24C262.422 661.907 266.555 660.668 270.78 660.68C275.002 660.732 279.124 661.972 282.675 664.257C286.226 666.541 289.062 669.779 290.86 673.6C294.837 672.168 299.033 671.437 303.26 671.44C319.86 671.44 333.34 682.24 333.34 695.52Z" fill="#F4A4A4"/>
<path opacity="0.4" d="M333.34 695.52C333.337 697.958 332.876 700.373 331.98 702.64H287.74C285.02 698.4 283.1 693.64 279.74 689.8C264.62 672.52 233.14 686.36 214.9 672.44C211.58 669.92 208.9 666.6 205.46 664.28C194.86 657.28 180.78 661.64 168.46 665C155.9 668.44 141.74 670.32 130.46 663.8C127.365 661.896 124.735 659.323 122.762 656.271C120.79 653.219 119.525 649.764 119.06 646.16C123.545 645.219 128.117 644.75 132.7 644.76C135.562 644.75 138.421 644.924 141.26 645.28C151.94 624.44 172.82 610.28 196.82 610.28C227.54 610.28 253.14 633.52 258.82 664.28C262.342 661.947 266.475 660.708 270.7 660.72C274.922 660.772 279.044 662.012 282.595 664.297C286.146 666.581 288.983 669.819 290.78 673.64C294.757 672.208 298.953 671.477 303.18 671.48C319.86 671.44 333.34 682.24 333.34 695.52Z" fill="white"/>
<path d="M573 136.4C573 139.4 196.84 137 196.84 137C196.821 136.935 196.821 136.865 196.84 136.8C196.76 136.88 196.68 136.92 196.6 137H83.8999C82.5908 133.66 81.9127 130.107 81.8999 126.52C81.8999 106.88 101.74 91 126.22 91C132.447 90.9803 138.631 92.0358 144.5 94.12C150.06 82.8 161.26 75.12 174.18 75.12C180.393 75.1243 186.469 76.9458 191.66 80.36C200.1 34.92 237.94 0.679987 283.26 0.679987C283.593 0.658347 283.927 0.658347 284.26 0.679987C319.26 0.999987 349.7 21.84 365.34 52.36C369.532 51.827 373.754 51.5598 377.98 51.56C411.58 51.56 440.18 67.76 450.46 90.36C453.413 85.7196 457.48 81.8911 462.289 79.2226C467.099 76.554 472.5 75.1299 478 75.08C485.665 75.0825 493.074 77.8362 498.88 82.84C505.162 80.2037 511.907 78.8439 518.72 78.84C540.44 78.84 559.16 92.36 567.84 111.84C571.279 119.569 573.038 127.94 573 136.4V136.4Z" fill="#F4A4A4"/>
<path opacity="0.4" d="M567.86 111.92C550.94 117.6 531.86 118.32 513.78 118.72C471.5 119.64 426.54 119.88 390.58 97.72C378.1 90 367.1 79.8 353.66 74C331.18 64.28 302.3 66.88 285.74 48.88C275.02 37.24 273.1 18.36 281.3 4.79999C282.181 3.34353 283.184 1.96517 284.3 0.679993C319.3 0.999993 349.74 21.84 365.38 52.36C369.572 51.827 373.794 51.5598 378.02 51.56C411.62 51.56 440.22 67.76 450.5 90.36C453.45 85.7253 457.51 81.9003 462.312 79.2321C467.114 76.5638 472.507 75.1366 478 75.08C485.665 75.0826 493.074 77.8362 498.88 82.84C505.162 80.2037 511.907 78.8439 518.72 78.84C540.46 78.88 559.18 92.4 567.86 111.92Z" fill="white"/>
<path d="M1622.89 1733H42.73L76.62 1665.21L234.77 1526.24L450.42 1459.15L461.56 1443.99L550.24 1323.38H1003.92L1147.16 1442.76L1181.66 1471.51L1447.58 1557.77L1602.95 1703.55L1606.64 1709.01L1622.89 1733Z" fill="#807074"/>
<path opacity="0.1" d="M1622.89 1733H1178.93L1047.05 1713.13L941.62 1566.97L926.43 1460.73L788.6 1425.92L735.26 1323.38H1003.92L1147.16 1442.76L1181.66 1471.51L1447.58 1557.77L1602.95 1703.55L1606.64 1709.01L1622.89 1733Z" fill="#DEE5F8"/>
<path d="M556.64 1550.2L333.01 1681.19L321.54 1733H42.73L76.62 1665.21L234.77 1526.24L450.42 1459.15L461.56 1443.99L550.24 1323.38L556.05 1529.16V1529.17L556.64 1550.2Z" fill="#6C4A49"/>
<path d="M916 1272.58L916.42 1235.29L862.42 1239.11L860.86 1269.93C879.009 1273.53 897.59 1274.42 916 1272.58V1272.58Z" fill="#F9B384"/>
<path d="M974.44 1323.17C959.8 1299.17 939.77 1291.17 915.86 1288.17L915.97 1272.61C897.553 1274.45 878.965 1273.56 860.81 1269.96L858.12 1323.2L974.44 1323.17Z" fill="#612C2D"/>
<path d="M647.82 1276.22L642.89 1287.51C618.97 1290.51 597.58 1303.41 577.89 1323.17H691.24L703.3 1276.35C684.941 1279.55 666.164 1279.5 647.82 1276.22V1276.22Z" fill="#612C2D"/>
<path d="M703.34 1276.35L712.93 1239.11L665.17 1236.56L647.82 1276.22C666.177 1279.51 684.968 1279.55 703.34 1276.35V1276.35Z" fill="#F9B384"/>
<path d="M940.9 693.38C969.35 878.47 961.28 1062.72 921.8 1248.66H853.88C861.99 1127.98 868.18 984.51 849.21 889.51L719.62 1250.25H645.43L767.7 736.68L809.7 654.32L908.2 642.44L940.9 693.38Z" fill="#612C2D"/>
<path d="M1031.33 298.57L1049.58 243.8L1099 255.35C1102.72 273.68 1080.52 301.51 1064 322.35L1031.33 298.57Z" fill="#F9B384"/>
<path d="M864.69 494.04L807.79 494.7L802.13 420.17L801.47 411.25L858.63 410.74L860.67 439.02L864.69 494.04Z" fill="#F9B384"/>
<path d="M847.06 427.64C818.18 434.24 785.94 415.72 773.22 391.12L771.5 347L787.66 324L856.42 329.92C856.1 330 856.14 330.92 856.42 332.6C857.22 336.88 859.86 346 862.3 357C868.3 383.8 873.1 421.68 847.06 427.64Z" fill="#F9B384"/>
<path d="M798.69 465.83C798.69 465.83 841.14 499.83 878.07 451.4L948.07 684.04C905.18 714.34 850.96 724.81 785.9 716.3L798.69 465.83Z" fill="white"/>
<g opacity="0.3">
<path opacity="0.3" d="M807.79 494.7C813.571 496.76 819.577 498.126 825.68 498.77C831.639 499.433 837.664 499.191 843.55 498.05C849.442 496.976 855.131 494.989 860.41 492.16C863.19 490.94 865.6 489.08 868.25 487.51C870.9 485.94 873.12 483.79 875.76 482.04C873.819 484.51 871.749 486.877 869.56 489.13C867.14 491.13 864.88 493.46 862.08 495.02C856.716 498.607 850.676 501.06 844.33 502.23C831.633 504.644 818.498 501.937 807.79 494.7V494.7Z" fill="#1F3C88"/>
</g>
<path d="M1029.42 288.38C991.01 353.24 953.55 410.23 919.69 437.38C914.608 441.339 908.249 443.296 901.82 442.88C889.09 442.22 875.94 443.78 861.31 447.25C864.38 563.63 875.42 671.43 915.01 737.52C938.85 730.64 967.79 719.59 983.78 706.1C970.78 661.88 955.34 598.48 943.88 543.1L1070.81 316.4L1029.42 288.38Z" fill="#E1473D"/>
<path d="M862.3 357C818.6 381.88 782.3 336.55 782.3 336.55L856.46 332.55C857.22 336.92 859.86 346 862.3 357Z" fill="#E28B6D"/>
<path d="M783 382.62C788.36 375.69 790.81 364.05 786 340.62C801.92 358.62 825.59 362.83 860.29 347.41C860.29 347.41 882.86 338.58 877.7 315.57C873.03 294.77 855.62 283.73 842.04 300.71C811.22 291.71 780.91 290.1 767.32 318.12C767.32 318.12 724.02 340.62 760.95 377.12L783 382.62Z" fill="#38303B"/>
<path d="M719.85 863.28L712.39 861.62L720.17 826.75L668.72 814.23L661.9 846.06L654.43 844.45L662.9 804.95L729.26 821.1L719.85 863.28Z" fill="#6F3428"/>
<path d="M689.58 753.35C688.31 755.12 683.64 791.03 683.64 791.03C683.64 791.03 662.84 810.53 676.85 822.5C690.86 834.47 707.85 834.02 715.9 825.16C718.71 816.49 718.9 806.35 715.48 794.16L723.55 754.27L689.58 753.35Z" fill="#F9B384"/>
<path d="M757.91 860.88L737.38 947.84L729.49 981.41L596.17 931.34L613.75 858.03L622.1 823.08L757.91 860.88Z" fill="#DA443C"/>
<path d="M1131.51 282.69L1060.72 325.6L1057.55 300.72L1110.92 268.37L1131.51 282.69Z" fill="#6F3428"/>
<path d="M1093.31 279.04L1075.16 290.04L1032.07 228.79L1058.93 212.5L1093.31 279.04Z" fill="#BB9132"/>
<path d="M1062.57 210.35L1028.47 231C1024.78 233.236 1020.4 234.071 1016.15 233.351C1011.89 232.632 1008.03 230.406 1005.28 227.08L948.22 158.08L1035 105.47L1069.78 187.97C1071.46 191.945 1071.66 196.392 1070.33 200.5C1069.01 204.608 1066.26 208.104 1062.57 210.35V210.35Z" fill="#F49C74"/>
<path d="M1058.39 166.82L1053.69 164.82C1066.79 133.28 1064.51 107.65 1054.88 102C1049.88 99.07 1042.94 102.53 1035.88 111.51L1031.88 108.36C1044.43 92.46 1053.97 95.54 1057.49 97.61C1069.18 104.53 1072.74 132.29 1058.39 166.82Z" fill="#F49C74"/>
<path d="M990.46 208.06C953.21 204.8 930.24 188.81 929.57 175.24C929.36 171.16 931.04 161.24 950.94 157.51L951.88 162.51C940.64 164.64 934.36 169.19 934.65 174.98C935.21 186.13 956.87 199.98 990.9 202.98L990.46 208.06Z" fill="#F49C74"/>
<path opacity="0.6" d="M1022.08 150.14C1019.08 144.96 1019.25 139.28 1022.42 137.44C1025.59 135.6 1030.6 138.32 1033.59 143.5C1036.58 148.68 1036.43 154.36 1033.25 156.2C1030.07 158.04 1025.07 155.32 1022.08 150.14Z" fill="white"/>
<path d="M1099 254.05C1100.24 262.88 1094.67 270.76 1082.9 270.76C1075.54 270.76 1065.24 260.67 1063.07 248.69C1061.28 238.81 1065.07 232.34 1072.07 229.46C1079.17 226.51 1096.63 237.4 1099 254.05Z" fill="#F9B384"/>
<path d="M873.811 93.5538L871.407 101.184L933.392 120.716L935.796 113.086L873.811 93.5538Z" fill="#F49C74"/>
<path d="M1006.3 12.3012L995.006 76.2921L1002.88 77.6826L1014.18 13.6918L1006.3 12.3012Z" fill="#F49C74"/>
<path d="M928.518 29.339L921.78 33.6515L956.808 88.3818L963.546 84.0693L928.518 29.339Z" fill="#F49C74"/>
<path d="M763 611L752.81 764.68C809.69 762.13 847.9 743.45 847.9 743.45C852.84 651.73 841.06 549.1 804.76 456.79C712.55 491.06 686.55 604.59 672.87 773.29L726.87 779.56L763 611Z" fill="#E1473D"/>
<path d="M783.83 397.91C766.48 404.09 755.39 402.69 754.47 386.11C753.94 376.6 763.74 369.02 772.38 373.04C776.13 374.78 779.63 378.09 782.98 382.62L783.83 397.91Z" fill="#F9B384"/>
<path opacity="0.15" d="M737.39 947.84L729.49 981.41L596.17 931.34L613.75 858.03C630.15 892 664.84 934 737.39 947.84Z" fill="#102048"/>
<path d="M932.32 490.66C934.62 497.95 936.61 505.31 938.54 512.66C940.47 520.01 942.27 527.44 944.01 534.86C945.75 542.28 947.35 549.73 948.8 557.22C950.25 564.71 951.66 572.22 952.7 579.78L950.76 580.22C948.4 572.94 946.42 565.58 944.47 558.22C942.52 550.86 940.76 543.43 939.07 536C937.38 528.57 935.76 521.12 934.35 513.63C932.94 506.14 931.48 498.63 930.35 491.08L932.32 490.66Z" fill="#E1473D"/>
<path d="M765.72 559.28C765.98 566.66 765.93 574.04 765.81 581.41C765.69 588.78 765.45 596.14 765.13 603.5C764.81 610.86 764.37 618.21 763.76 625.56C763.15 632.91 762.5 640.25 761.47 647.56L759.47 647.46C759.16 640.07 759.22 632.7 759.31 625.33C759.4 617.96 759.7 610.6 760.06 603.24C760.42 595.88 760.86 588.52 761.51 581.18C762.16 573.84 762.76 566.49 763.72 559.18L765.72 559.28Z" fill="#E1473D"/>
<path d="M773.43 388.7C772.54 387.45 771.71 386.17 770.84 384.98C770.041 383.824 769.115 382.761 768.08 381.81C767.738 381.406 767.299 381.096 766.803 380.91C766.308 380.725 765.773 380.67 765.25 380.75C764.25 380.89 763.14 382.02 761.98 382.96L760.98 382.33C761.63 380.85 762.39 379.19 764.37 378.33C766.35 377.47 768.8 378.44 770.02 379.62C772.377 381.984 773.946 385.019 774.51 388.31L773.43 388.7Z" fill="#38303B"/>
<path d="M1062.32 256.69C1064.18 249.69 1063.22 243.32 1060.19 242.52C1057.16 241.72 1052.49 245 1050.63 252.02C1048.77 259.04 1046.63 269.17 1051.43 271.42C1059.91 275.43 1060.47 263.71 1062.32 256.69Z" fill="#F9B384"/>
</svg>
