<svg xmlns="http://www.w3.org/2000/svg" viewBox="0 0 176.31 411.34"><defs><style>.cls-1{fill:#f4966b;}.cls-2{fill:#ce4238;}.cls-3{fill:#672c2c;}.cls-4{fill:#87524e;}.cls-5{fill:#86514d;}.cls-6{fill:#f59265;}.cls-7{fill:#ed825d;}.cls-8{fill:#f2e2c8;}.cls-9{fill:#38303b;}.cls-10{fill:#3e3742;}.cls-11{fill:#15213f;}.cls-12{fill:#e66e60;}.cls-13{fill:#fff;}</style></defs><g id="Layer_2" data-name="Layer 2"><g id="OBJECTS"><g id="legs"><g id="shoes"><path class="cls-1" d="M30.06,398.85c-.18-3.37-.37-6.73-.56-10.1a5.62,5.62,0,0,1,.75-3.88c1.53-2,4.94-2.13,7.77-2a4.93,4.93,0,0,1,2.85.68c.9.72.81,1.91.67,3l-2,14"/><path class="cls-1" d="M116.89,397.4l-.19-10.12a5.1,5.1,0,0,0-1.15-3.81c-1.87-1.88-5.69-1.77-8.85-1.47a6.07,6.07,0,0,0-3.14.88c-1,.78-.76,2-.51,3q1.65,6.9,3.31,13.8"/><path class="cls-2" d="M140.69,410.67l-17.4.65c-1.89.07-16.88-.14-19-.09a3,3,0,0,1-2-.46,2.84,2.84,0,0,1-.63-2.34,36.63,36.63,0,0,1,1.78-9.74c.23-.72.58-1.52,1.3-1.74a2.58,2.58,0,0,1,2,.5c2.44,1.38,2.61,1.36,5.5.72.71-.15,3.48-1.06,4.15-1.34a4.19,4.19,0,0,1,2.38,0,79.07,79.07,0,0,1,19.78,6.42,8.51,8.51,0,0,1,3.73,2.8c.85,1.33.78,3.37-.54,4.23"/><path class="cls-2" d="M64.6,410.67l-17.4.65c-1.89.07-16.87-.14-19-.09a2.94,2.94,0,0,1-2-.46,2.85,2.85,0,0,1-.64-2.34,36.63,36.63,0,0,1,1.78-9.74c.24-.72.58-1.52,1.3-1.74a2.57,2.57,0,0,1,2,.5c2.45,1.38,2.61,1.36,5.51.72.71-.15,3.48-1.06,4.15-1.34a4.19,4.19,0,0,1,2.38,0,79.13,79.13,0,0,1,19.77,6.42,8.6,8.6,0,0,1,3.74,2.8c.84,1.33.78,3.37-.54,4.23"/></g><g id="jeans"><g id="legs-2" data-name="legs"><path class="cls-3" d="M113.51,201.24c-.36,53.49,3,184.9,3,184.9l-12.65.67s-12.49-73-14.69-84.39-15.45-82.23-15.45-82.23L42,386l-11.71-.34s8-127,9.66-183.87c.2-6.55,7.81-33.52,7.81-33.52l58.8-4.58,6.56,33.78A19.4,19.4,0,0,1,113.51,201.24Z"/><polygon class="cls-4" points="28.01 390.72 45.75 391.32 45.85 383.95 28.11 383.34 28.01 390.72"/><rect class="cls-4" x="101.41" y="379.36" width="17.73" height="7.38" transform="matrix(1, -0.06, 0.06, 1, -24.58, 7.95)"/></g><path class="cls-5" d="M112.93,200.21a23.52,23.52,0,0,1-8.69-4.81A59.17,59.17,0,0,1,97.41,188c-.46-.56.47-1.18.92-.63a59,59,0,0,0,6.46,7,22.22,22.22,0,0,0,8.37,4.72c.68.2.47,1.3-.23,1.1Z"/><path class="cls-5" d="M40,201.56a22.53,22.53,0,0,0,11.81-12.63c.25-.67,1.25-.17,1,.5a23.6,23.6,0,0,1-12.44,13.18c-.66.3-1-.76-.37-1.05Z"/><path class="cls-5" d="M75.36,170.69l.72,30.67c0,.72-1.1.79-1.12.07q-.36-15.33-.71-30.67c0-.71,1.09-.79,1.11-.07Z"/></g></g><path class="cls-6" d="M155.36,101.77c4.14-.15,9.1-11.59,10.65-23.54,1.45-11.14,2.71-20,2.52-32.6,0-2.27-.25-4.94-2-6.41s-2.5.41-4.48.82c-.76.15-.94,1-1.62,4.84-2.55,14.41-5.62,22.26-10,36.28"/><path class="cls-6" d="M161.3,40.89c.58-4.6-.72-7.26-1.57-10.54a37.72,37.72,0,0,1-.92-7.08l-.76-11.43c0-.4,0-.88.3-1s.87.45,1.08,1l2.31,5.79c0,.11.17.11.19,0,1-4.65,2.44-9.9,3.61-12,.48-.68,1.06-.16,1.12.65l-1.32,12.39c0,.14.17.21.2.08l2.65-8.93a10.68,10.68,0,0,1,1.36-3.24.49.49,0,0,1,.84.19,6,6,0,0,1,.07,3c-.9,6-1.45,10.19-1.24,10.33s1.55-5.27,2.47-8.69a3.64,3.64,0,0,1,1.09-2c.53-.35,1,0,1,.76A36.72,36.72,0,0,1,172.46,21c0,.13.14.23.19.1s1.91-7.89,3-7.34c.89.43.63,2.3.46,3.45-.93,6.3-3,15.06-5.85,20.53a13.73,13.73,0,0,0-1.87,6.14"/><path class="cls-7" d="M167.36,36.24c-.06-4.57-2.3-8.71-4.47-12.6-.22-.4-.83,0-.61.36,2.1,3.78,4.32,7.8,4.38,12.24a.35.35,0,0,0,.7,0Z"/><path class="cls-2" d="M170.93,54a192.66,192.66,0,0,1-11.09,52.4c-1.12,3.07-2.4,6.24-4.88,8.37-3.35,2.89-8.16,3.25-12.59,3.08a75.72,75.72,0,0,1-18.61-3.05,8.35,8.35,0,0,1-3.33-1.58c-1.33-1.2-1.78-3.07-2.18-4.81q-3.68-16.31-7.34-32.62c4.66-1.22,9.14,2.12,13.07,4.92,6.88,4.91,11.39,5.47,19.46,8C146,78,149.85,70.57,153.83,60.53c1.87-4.7,2.21-10.78,4.59-9.76"/><path class="cls-8" d="M105.94,179.72c-20.07,4-40.81,2.43-61.15.11a4.53,4.53,0,0,1-3.16-1.23,4.46,4.46,0,0,1-.64-2.95c.09-3.9.34-7.8.58-11.69q2.26-35.91,4.51-71.84c.3-4.73.64-9.62,2.81-13.84C51.63,73,57.8,70.22,62.42,66.43c4.31-3.54,11.23-2.93,17.19-3.23,3.42-.18,7.7,1.59,11,2.56,4.92,1.46,8.82,5.38,11.34,9.85a56.24,56.24,0,0,1,4.79,13.09c3.94,14.73,7.12,29.76,7.7,45s-1.51,30.77-7.71,44.7"/><path class="cls-2" d="M112.08,193.45c-2-3.23-6.49-2.68-9.94-4.85-1.74-1.1-2.23-3.1-2.55-4.9-5.84-32.07-5.13-64.54-4.6-96.82.15-8.83-1.5-19.27-11.13-22.79,3-2.24,7.49.5,12.25,2.42,5,2,8.81,2.88,13.63,5.23,3.46,1.69,7,3.44,9.5,6.09,6.1,6.48,4,15.72,2,23.67-7.48,29.17-.63,69.66-7.61,92.74"/><path class="cls-2" d="M37.65,190c2.26-3.11,4.34-1.24,8.1-3.26,1.89-1,2.49-3,2.92-4.74,7.66-31.37,8.4-63.36,9.33-95.16.25-8.7,1.36-22.61,12.61-22.59-3-2.31-8.08-.84-11.9.73L43.08,71.44c-3.73,1.54-7.57,3.14-10.33,5.67-6.77,6.17-5,15.34-3.19,23.23,6.57,29-.53,68.27,5.8,91.23Z"/><path class="cls-7" d="M40.72,201.32a58.59,58.59,0,0,0-5.63-8.25,4.49,4.49,0,0,1-1.34-2.72,4.79,4.79,0,0,1,.44-1.56,17.31,17.31,0,0,0,1.17-5.54c0-.47.19-1.1.65-1.06a.89.89,0,0,1,.31.11l10.78,5.41c1.37.68,4.29,1.77,3.83,3.23a9.93,9.93,0,0,1-1.7,3.15c-1.84,2.64-6,6.38-8.51,7.32"/><path class="cls-2" d="M46.34,109.88A72.13,72.13,0,0,1,23.4,151a94.25,94.25,0,0,0,14.09,29,4.63,4.63,0,0,1,1,2,4.53,4.53,0,0,1-.85,2.67l-4.46,7.67A253.23,253.23,0,0,1,10.28,172C5.26,167,.12,161,0,153.68c-.06-3.93,1.38-7.69,2.8-11.32Q10.9,121.67,19,101c1.8-4.58,3.59-9.17,5.64-13.62,2.44-5.29,6.37-11.1,12-10.85,3.48.17,6.52,2.84,8.18,6.08s2.17,7,2.52,10.62"/><path class="cls-3" d="M85.15,64.82a34.88,34.88,0,0,1,10.07,8c1.13,1.25,2.2,2.55,3.31,3.82,1.27,1.47,2.72,2.81,3.86,4.39A9.93,9.93,0,0,1,104,84.16a10,10,0,0,1,.15,4c-.28,2-.76,3.94-1.12,5.91-.64,3.61-1.15,7.25-1.6,10.89-1,8.35-1.65,16.76-2.12,25.16-.48,8.72-.76,17.45-.91,26.18q-.2,11.66-.06,23.29c0,.85,0,1.69,0,2.53a.5.5,0,0,0,1,0q-.18-11.5,0-23,.17-13.18.81-26.35c.44-8.59,1-17.17,2-25.71.43-3.79.93-7.57,1.57-11.33.3-1.79.64-3.56,1-5.34.5-2.45.87-5-.08-7.4a18.38,18.38,0,0,0-4-5.58c-1.09-1.14-2.09-2.35-3.11-3.54a42.92,42.92,0,0,0-8.79-8.18A29.24,29.24,0,0,0,85.65,64c-.57-.29-1.08.57-.5.86Z"/><path class="cls-3" d="M66.37,64.08a20.93,20.93,0,0,0-9.43,6.67,55.09,55.09,0,0,0-3.32,4.69c-1.11,1.72-2.28,3.41-3.38,5.14a32.78,32.78,0,0,0-3.93,10.21,7.65,7.65,0,0,0-.14,3.43c.2.89.46,1.77.67,2.65.43,1.81.82,3.64,1.17,5.47a201,201,0,0,1,3.08,25.41q.87,13.5.42,27.05a192.49,192.49,0,0,1-2.22,24.45c-.14.88-.3,1.75-.46,2.62-.11.63.85.9,1,.27a177.23,177.23,0,0,0,2.54-23.43q.66-13.31,0-26.63a225.72,225.72,0,0,0-2.58-25.57c-.61-3.74-1.34-7.46-2.26-11.13a8.76,8.76,0,0,1-.44-3.17,30.6,30.6,0,0,1,.74-3.39,25.63,25.63,0,0,1,1.86-5,34.29,34.29,0,0,1,2.7-4.61c1.11-1.69,2.18-3.4,3.31-5.07a23.41,23.41,0,0,1,8-7.81,20.82,20.82,0,0,1,3-1.3c.6-.21.34-1.18-.27-1Z"/><path class="cls-3" d="M148,103.76a32.63,32.63,0,0,1-4.16-15c0-.64-1-.65-1,0a33.59,33.59,0,0,0,4.3,15.53.5.5,0,0,0,.86-.5Z"/><path class="cls-3" d="M23.74,150.73a31.89,31.89,0,0,0-7.08-13.16c-.43-.48-1.14.23-.71.71A30.71,30.71,0,0,1,22.77,151a.5.5,0,0,0,1-.26Z"/><path class="cls-3" d="M23.9,151.4a11.5,11.5,0,0,0-9-5.72c-.64-.06-.64.94,0,1A10.45,10.45,0,0,1,23,151.9a.5.5,0,0,0,.87-.5Z"/><path class="cls-3" d="M149.57,97a17.67,17.67,0,0,1-5.31-8.06c-.19-.62-1.15-.36-1,.26a18.7,18.7,0,0,0,5.56,8.51c.49.42,1.2-.29.71-.71Z"/><g id="head"><path class="cls-9" d="M85.86,52.9c4.68-2.22,8-6.56,9.89-11.28s2.42-9.82,2.7-14.86c.15-2.55.06-5.5-2-7.11a8.91,8.91,0,0,0-3.77-1.4C86.52,17,80.28,15.71,74,15.66s-12.81,1.18-18.07,4.58a5.29,5.29,0,0,0-2,1.91,5.46,5.46,0,0,0-.34,2.67c.24,6.15.72,12.48,3.5,18S65.47,53,71.82,53"/><g id="head-2" data-name="head"><path class="cls-2" d="M83.12,69.37a4.6,4.6,0,0,1,.89.5l.11.08c-.21-.15-.07-.06,0,0l.18.15a4.68,4.68,0,0,1,.38.39l.17.19,0,0,.08.12c.1.14.19.28.28.43l.12.23.06.13s.07.16,0,0,0,0,0,0a.78.78,0,0,0,0,.14c0,.08,0,.17.08.26a.9.9,0,0,0,1.08.62.89.89,0,0,0,.61-1.08A5.75,5.75,0,0,0,84,67.85a1,1,0,0,0-.67-.09.91.91,0,0,0-.53.41.87.87,0,0,0,.32,1.2Z"/><path class="cls-2" d="M67.87,68.17a3.36,3.36,0,0,0-2.16.83,3.13,3.13,0,0,0-1.07,1.84.92.92,0,0,0,.09.67.89.89,0,0,0,1.2.32.85.85,0,0,0,.4-.53,2.15,2.15,0,0,1,.15-.51l-.09.21a2.33,2.33,0,0,1,.32-.55l-.14.18a2.79,2.79,0,0,1,.46-.45l-.18.14A2.77,2.77,0,0,1,67.4,70l-.21.09a2.51,2.51,0,0,1,.61-.17l-.23,0a1.51,1.51,0,0,1,.3,0,.88.88,0,0,0,.87-.88.89.89,0,0,0-.87-.88Z"/><path class="cls-1" d="M66.34,71.07c.45-4.36,1.21-16,1.66-20.34a1.58,1.58,0,0,1,.16-.61,1.21,1.21,0,0,1,.91-.46c2.85-.43,5.79.15,8.62-.39,2.32-.44,4.63-1.63,6.93-1.09a1.17,1.17,0,0,1,.63.33,1.4,1.4,0,0,1,.21.86c0,1.35,0,2.69,0,4-.06,4.1-.29,14.28-.35,18.38,0,0-4.82,4.73-10.09,4.38A10.55,10.55,0,0,1,66.34,71.07Z"/><path class="cls-7" d="M85.25,48.51a1.17,1.17,0,0,0-.63-.33c-2.3-.54-4.61.65-6.93,1.09-2.83.54-5.77,0-8.62.39a1.21,1.21,0,0,0-.91.46,1.58,1.58,0,0,0-.16.61l-.67,6.48a16.51,16.51,0,0,0,7.87,2.66,12.28,12.28,0,0,0,10.23-4.55l0-1.91c0-1.35,0-2.69,0-4A1.4,1.4,0,0,0,85.25,48.51Z"/><ellipse class="cls-1" cx="76.04" cy="34.69" rx="17.39" ry="22.96"/><path class="cls-1" d="M92.47,39.63a5.56,5.56,0,0,0,4.17-4.52,4,4,0,0,0-4-4.19"/><path class="cls-1" d="M60.14,39.63A5.57,5.57,0,0,1,56,35.11a4,4,0,0,1,4-4.19"/><path class="cls-2" d="M85.31,71.49a14,14,0,0,1-18.68-.19c-.83-.77-2.08.47-1.24,1.24a15.76,15.76,0,0,0,21.16.19c.84-.75-.4-2-1.24-1.24Z"/></g><g id="hair"><path class="cls-9" d="M101.55,26.07c-2.68-.5-5.35-1.11-8-1.84a34,34,0,0,1-4.28-1.41c-7.1-3-12.34-9.65-15.7-16.88A5.25,5.25,0,0,1,73,4c-.06-2,2.09-3.3,4-3.69C83.19-1,89.8,2.11,94.06,7.11s6.45,11.62,7.34,18.24"/><path class="cls-9" d="M81.79,12.74a39.78,39.78,0,0,1-26,13.37,4.67,4.67,0,0,1-2.77-.34c-1.28-.73-1.74-2.4-1.86-3.91A18.72,18.72,0,0,1,57.41,7,26.12,26.12,0,0,1,72,.7c3-.37,6.79.08,8,3"/></g><g id="face"><path class="cls-7" d="M74.18,31l-.27,5.17c0,.31.09,1-.22,1.26s-.61.15-.87.31a1.81,1.81,0,0,0-.8,1.06,2.2,2.2,0,0,0,1,2.51A3.51,3.51,0,0,0,76.54,41a.35.35,0,0,0-.36-.61c-.9.56-2.39.84-3.19-.06a1.36,1.36,0,0,1,.47-2.18c.49-.14.91-.28,1.06-.82a9.35,9.35,0,0,0,.13-1.91l.24-4.5c0-.45-.69-.45-.71,0Z"/><path class="cls-10" d="M71,25.24c.13.09,0,.27-.19.3a1.22,1.22,0,0,1-.53-.1,10.17,10.17,0,0,0-6.54,0,3.15,3.15,0,0,1-1,.25c-.34,0-.73-.16-.74-.41a.41.41,0,0,1,.13-.3,3.07,3.07,0,0,1,1.42-.87,9,9,0,0,1,5.88.05,3.13,3.13,0,0,1,1.6,1.12"/><path class="cls-10" d="M80.17,25.24c-.13.09,0,.27.18.3a1.17,1.17,0,0,0,.53-.1,10.17,10.17,0,0,1,6.54,0,3.23,3.23,0,0,0,1,.25c.35,0,.73-.16.75-.41A.51.51,0,0,0,89,25a3.17,3.17,0,0,0-1.42-.87,9,9,0,0,0-5.88.05A3.12,3.12,0,0,0,80.1,25.3"/><path class="cls-7" d="M90.22,40.79a3.83,3.83,0,1,1-3.83-3.64A3.74,3.74,0,0,1,90.22,40.79Z"/><path class="cls-7" d="M69.35,40.79a3.83,3.83,0,1,1-3.83-3.64A3.74,3.74,0,0,1,69.35,40.79Z"/><ellipse class="cls-11" cx="84.46" cy="31.35" rx="1.3" ry="2.28"/><path class="cls-11" d="M67.51,31.35c0,1.26-.59,2.28-1.31,2.28s-1.3-1-1.3-2.28.58-2.27,1.3-2.27S67.51,30.1,67.51,31.35Z"/><path class="cls-12" d="M68.63,45.75c3.32,3.48,6.39,4,10.05,2.94a5.92,5.92,0,0,0,3.49-3.15c-4.49,2.49-9.17,2.68-13.6,0"/><path class="cls-13" d="M68.63,45.75c2.94,2,6.48,2.68,11.2,1.42A4.27,4.27,0,0,0,82.5,45.4a22.37,22.37,0,0,1-14.28-.1Z"/></g></g></g></g></svg>