<svg xmlns="http://www.w3.org/2000/svg" viewBox="0 0 437.4 370.97"><defs><style>.cls-1{fill:#af9081;}.cls-2{fill:#6a4c48;}.cls-3{fill:#f49c74;}.cls-4{fill:#fff;}.cls-5{fill:#ec8d67;}.cls-6{fill:#004d47;}.cls-7{fill:#ffa82a;}.cls-8{fill:#f15381;}.cls-9{fill:#ffd234;}.cls-10{fill:#ebebeb;}.cls-11{fill:#ff769b;}.cls-12{fill:#febbba;}.cls-13{fill:#e1473d;}.cls-14{fill:#ff7568;}.cls-15{fill:#f39269;}.cls-16{fill:#38303b;}.cls-17{fill:#984a49;}.cls-18{fill:#6c4a49;}.cls-19{fill:#543335;}.cls-20{fill:#f4a22a;}.cls-21{fill:#ff9a00;}.cls-22{fill:#e5ff35;}</style></defs><g id="Layer_2" data-name="Layer 2"><g id="OBJECTS"><path class="cls-1" d="M414.11,234.39a147.08,147.08,0,0,0-10.63-27,.25.25,0,0,0,0-.07A51.45,51.45,0,0,0,407.84,195a34.3,34.3,0,0,0,.07-14.17,31,31,0,0,0-2.42-7,14.74,14.74,0,0,0-.87-1.62l-.93-1.59-.23-.39-.23-.32-.45-.66-.9-1.3a100.09,100.09,0,0,0-7.88-9.79c-11.23-12.32-24.47-22.46-38.5-31.63a328.71,328.71,0,0,0-34.17-19.29C264.47,59,192.39,26.8,134.33,52.19c-14.53,6.35-26.69,16.34-36.75,28.87a121.82,121.82,0,0,0-29.95,17.7A92.76,92.76,0,0,0,51.11,116,91.34,91.34,0,0,0,40,136.43,105.65,105.65,0,0,0,34.15,158a131.44,131.44,0,0,0-1.64,21.29,165.25,165.25,0,0,0,1.37,20.38,189,189,0,0,0,3.46,19.22q2.16,9.3,4.91,18c1.85,5.79,3.84,11.38,5.93,16.78,3.62,9.21,7.55,17.83,11.65,25.88,5.3,36.91,16.39,64.43,29.85,68.56,4.47,1.37,12,2.08,21.8,2.15,7.19,6.85,20.07,16.38,41.5,13.12a88.09,88.09,0,0,0,11.42-2,161.13,161.13,0,0,0,16.39-5c6.07-2.14,12.69-4.8,19.84-7.89s14.74-6.56,22.87-10.44c32.1-5.9,65.58-13.87,95.41-23.74C378.23,294.71,423.14,267.62,414.11,234.39Zm-357.27,13q-2.3-6.63-4.33-13.61c-1.6-5.59-3-11.36-4.25-17.28a179.86,179.86,0,0,1-2.86-18.2,153.91,153.91,0,0,1-.88-18.93c.21-12.77,2.25-25.92,7.29-38.18a76.92,76.92,0,0,1,24.17-32q3.18-2.52,6.59-4.79C61.48,145.08,54.66,200,56.84,247.38ZM178.73,351.14l-1.48.63c-6.93,2.87-36.62,14-54,1.71q-1.87-1.51-3.87-3.31c17.79-.4,41.17-2.47,67-6.1q5.36-.75,10.84-1.59C190.54,345.79,184.36,348.71,178.73,351.14Zm216-159.52a316.47,316.47,0,0,0-30.34-41.49c.87.67,1.75,1.33,2.6,2,3,2.44,6,4.88,8.76,7.46s5.49,5.2,8,7.91a88.36,88.36,0,0,1,6.91,8.42l.77,1.09.38.54.19.27a2.1,2.1,0,0,1,.14.24l.55.92a5.94,5.94,0,0,1,.51.92,16.82,16.82,0,0,1,1.39,3.9A20.47,20.47,0,0,1,394.77,191.62Z"/><path class="cls-2" d="M102.8,43.64c3.82,6.61-2.15,17.2-13.32,23.65S66.15,73.61,62.34,67s2.15-17.19,13.32-23.65S99,37,102.8,43.64Z"/><path class="cls-2" d="M202.3,29.45c-.64,4.33-7.09,7-14.41,5.87s-12.72-5.48-12.08-9.81,7.1-7,14.41-5.86S203,25.12,202.3,29.45Z"/><path class="cls-2" d="M260.84,353.67c1.79,5.79-4.7,12.94-14.49,15.95s-19.17.78-20.95-5,4.7-12.93,14.48-15.95S259.05,347.88,260.84,353.67Z"/><path class="cls-2" d="M295.15,339.21c1.07,3.46-2.81,7.72-8.65,9.53s-11.45.46-12.51-3,2.8-7.72,8.65-9.52S294.08,335.75,295.15,339.21Z"/><path class="cls-3" d="M383.39,41.61h-7.67a30.57,30.57,0,0,0-2.08-5l5.43-5.43a3.45,3.45,0,0,0,0-4.88l-8.37-8.37a3.45,3.45,0,0,0-4.88,0l-5.43,5.43a31.09,31.09,0,0,0-5-2.08V13.6a3.44,3.44,0,0,0-3.45-3.45H340.09a3.45,3.45,0,0,0-3.45,3.45v7.67a31.47,31.47,0,0,0-5,2.08h0l-5.43-5.43a3.43,3.43,0,0,0-4.87,0L313,26.29a3.46,3.46,0,0,0,0,4.88l5.43,5.43a30.53,30.53,0,0,0-2.07,5h-7.68a3.45,3.45,0,0,0-3.45,3.45V56.9a3.45,3.45,0,0,0,3.45,3.45h7.68a30.17,30.17,0,0,0,2.07,5L313,70.79a3.46,3.46,0,0,0,0,4.88L321.33,84a3.43,3.43,0,0,0,4.87,0l5.43-5.43a31.47,31.47,0,0,0,5,2.08v7.67a3.45,3.45,0,0,0,3.45,3.45h11.84a3.44,3.44,0,0,0,3.45-3.45V80.69a31.09,31.09,0,0,0,5-2.08L365.82,84a3.45,3.45,0,0,0,4.88,0l8.37-8.37a3.45,3.45,0,0,0,0-4.88l-5.43-5.43a31.09,31.09,0,0,0,2.08-5h7.67a3.46,3.46,0,0,0,3.46-3.45V45.06A3.46,3.46,0,0,0,383.39,41.61ZM346,66.41A15.44,15.44,0,1,1,361.45,51,15.43,15.43,0,0,1,346,66.41Z"/><path class="cls-4" d="M346,78a27,27,0,1,1,27-27A27,27,0,0,1,346,78Zm0-51.35A24.35,24.35,0,1,0,370.36,51,24.37,24.37,0,0,0,346,26.63Z"/><path class="cls-5" d="M290.11,45.64h-5.37a20.78,20.78,0,0,0-1.46-3.51l3.81-3.8a2.43,2.43,0,0,0,0-3.42l-5.87-5.86a2.4,2.4,0,0,0-3.41,0L274,32.85a22.17,22.17,0,0,0-3.51-1.46V26a2.42,2.42,0,0,0-2.42-2.42h-8.29A2.41,2.41,0,0,0,257.37,26v5.37a22.17,22.17,0,0,0-3.51,1.46h0l-3.81-3.8a2.4,2.4,0,0,0-3.41,0l-5.87,5.86a2.43,2.43,0,0,0,0,3.42l3.8,3.8a21.6,21.6,0,0,0-1.45,3.51h-5.38a2.41,2.41,0,0,0-2.41,2.42v8.29a2.41,2.41,0,0,0,2.41,2.41h5.38a21.23,21.23,0,0,0,1.45,3.51l-3.8,3.81a2.43,2.43,0,0,0,0,3.42l5.87,5.86a2.41,2.41,0,0,0,3.41,0l3.81-3.8A21.23,21.23,0,0,0,257.37,73v5.38a2.41,2.41,0,0,0,2.41,2.41h8.29a2.41,2.41,0,0,0,2.42-2.41V73A21.23,21.23,0,0,0,274,71.56l3.81,3.8a2.41,2.41,0,0,0,3.41,0l5.87-5.86a2.43,2.43,0,0,0,0-3.42l-3.81-3.81a21.27,21.27,0,0,0,1.46-3.51h5.37a2.41,2.41,0,0,0,2.42-2.41V48.06A2.42,2.42,0,0,0,290.11,45.64ZM263.93,63A10.81,10.81,0,1,1,274.74,52.2,10.81,10.81,0,0,1,263.93,63Z"/><path class="cls-4" d="M263.93,71.11A18.91,18.91,0,1,1,282.84,52.2,18.93,18.93,0,0,1,263.93,71.11Zm0-36A17.06,17.06,0,1,0,281,52.2,17.07,17.07,0,0,0,263.93,35.15Z"/><path class="cls-3" d="M380.49,318.88H373a31,31,0,0,0-2-4.9l5.31-5.32a3.38,3.38,0,0,0,0-4.78l-8.2-8.2a3.36,3.36,0,0,0-4.78,0L358,301a29,29,0,0,0-4.91-2v-7.52a3.38,3.38,0,0,0-3.38-3.38H338.07a3.38,3.38,0,0,0-3.39,3.38V299a29.72,29.72,0,0,0-4.91,2h0l-5.32-5.32a3.35,3.35,0,0,0-4.77,0l-8.21,8.2a3.38,3.38,0,0,0,0,4.78l5.32,5.32a30.09,30.09,0,0,0-2,4.9h-7.52a3.38,3.38,0,0,0-3.38,3.38v11.6a3.38,3.38,0,0,0,3.38,3.38h7.52a29.83,29.83,0,0,0,2,4.91l-5.32,5.32a3.38,3.38,0,0,0,0,4.78l8.21,8.2a3.37,3.37,0,0,0,4.77,0l5.32-5.32a30.61,30.61,0,0,0,4.91,2v7.52a3.38,3.38,0,0,0,3.39,3.38h11.59a3.38,3.38,0,0,0,3.38-3.38v-7.52a29.87,29.87,0,0,0,4.91-2l5.32,5.32a3.38,3.38,0,0,0,4.78,0l8.2-8.2a3.38,3.38,0,0,0,0-4.78l-5.31-5.32a30.72,30.72,0,0,0,2-4.91h7.52a3.38,3.38,0,0,0,3.38-3.38v-11.6A3.38,3.38,0,0,0,380.49,318.88Zm-36.63,24.3A15.12,15.12,0,1,1,359,328.06,15.12,15.12,0,0,1,343.86,343.18Z"/><path class="cls-4" d="M343.86,354.51a26.45,26.45,0,1,1,26.45-26.45A26.48,26.48,0,0,1,343.86,354.51Zm0-50.3a23.86,23.86,0,1,0,23.86,23.85A23.88,23.88,0,0,0,343.86,304.21Z"/><path class="cls-3" d="M99,73.21H92.83a25,25,0,0,0-1.67-4l4.37-4.37a2.77,2.77,0,0,0,0-3.93l-6.74-6.74a2.77,2.77,0,0,0-3.93,0l-4.37,4.37a24.34,24.34,0,0,0-4-1.67V50.66a2.77,2.77,0,0,0-2.78-2.78H64.14a2.78,2.78,0,0,0-2.78,2.78v6.18a24.59,24.59,0,0,0-4,1.67h0L53,54.14a2.77,2.77,0,0,0-3.93,0l-6.74,6.74a2.77,2.77,0,0,0,0,3.93l4.37,4.37a25,25,0,0,0-1.67,4H38.81A2.78,2.78,0,0,0,36,76v9.53a2.77,2.77,0,0,0,2.78,2.78H45a24.34,24.34,0,0,0,1.67,4l-4.37,4.37a2.77,2.77,0,0,0,0,3.93L49,107.38a2.79,2.79,0,0,0,3.93,0L57.33,103a24.59,24.59,0,0,0,4,1.67v6.18a2.78,2.78,0,0,0,2.78,2.78h9.53a2.77,2.77,0,0,0,2.78-2.78v-6.18a24.34,24.34,0,0,0,4-1.67l4.37,4.37a2.79,2.79,0,0,0,3.93,0l6.74-6.74a2.77,2.77,0,0,0,0-3.93l-4.37-4.37a24.34,24.34,0,0,0,1.67-4H99a2.77,2.77,0,0,0,2.78-2.78V76A2.78,2.78,0,0,0,99,73.21Zm-30.1,20A12.43,12.43,0,1,1,81.34,80.76,12.44,12.44,0,0,1,68.91,93.19Z"/><path class="cls-4" d="M68.91,102.5A21.74,21.74,0,1,1,90.65,80.76,21.76,21.76,0,0,1,68.91,102.5Zm0-41.35a19.61,19.61,0,1,0,19.6,19.61A19.64,19.64,0,0,0,68.91,61.15Z"/><path class="cls-4" d="M139.47,86.41a13.64,13.64,0,0,1-13.62-13.62V66.52h4.48v6.27a9.15,9.15,0,0,0,18.29,0V53a13.64,13.64,0,0,1,13.62-13.62h5A13.64,13.64,0,0,1,180.87,53v50.46h-4.48V53a9.15,9.15,0,0,0-9.15-9.14h-5A9.15,9.15,0,0,0,153.1,53V72.79A13.64,13.64,0,0,1,139.47,86.41Z"/><path class="cls-3" d="M149.92,21.83a21.84,21.84,0,1,0-40,12.05,40.49,40.49,0,0,1,6.75,22.38h22.94A39.71,39.71,0,0,1,146.21,34,21.69,21.69,0,0,0,149.92,21.83Z"/><path class="cls-4" d="M130.45,22.07v5.62h-4.72V22.07H118v7.65h5.73V59.07h2V29.72h4.72V59.07h2V29.72h5.73V22.07Zm-6.75,5.62H120v-3.6h3.71Zm12.49,0h-3.71v-3.6h3.71Z"/><rect class="cls-6" x="122.69" y="67.17" width="10.8" height="5.17"/><path class="cls-7" d="M116.62,56.26h22.94a0,0,0,0,1,0,0v8.51a4.77,4.77,0,0,1-4.77,4.77H121.38a4.77,4.77,0,0,1-4.77-4.77v-8.5A0,0,0,0,1,116.62,56.26Z"/><polygon class="cls-8" points="349.07 134.57 318.33 140.21 325.08 148.14 304.63 165.53 280.85 138.99 240.37 173.15 247.11 181.13 279.84 153.51 303.64 180.09 331.85 156.09 338.59 164.02 349.07 134.57"/><polygon class="cls-3" points="332.99 106.39 308.5 110.88 313.87 117.19 297.59 131.05 278.65 109.9 246.4 137.12 251.77 143.48 277.84 121.47 296.8 142.64 319.27 123.53 324.64 129.84 332.99 106.39"/><path class="cls-4" d="M398.29,152.26a2.25,2.25,0,0,0-2.24,2.24v2.24a2.24,2.24,0,1,0,4.48,0V154.5A2.24,2.24,0,0,0,398.29,152.26Z"/><path class="cls-4" d="M398.29,207.29a2.24,2.24,0,0,0-2.24,2.24v4.8a2.24,2.24,0,1,0,4.48,0v-4.8A2.24,2.24,0,0,0,398.29,207.29Z"/><path class="cls-4" d="M398.29,168.9a2.24,2.24,0,0,0-2.24,2.24v4.8a2.24,2.24,0,0,0,4.48,0v-4.8A2.24,2.24,0,0,0,398.29,168.9Z"/><path class="cls-4" d="M398.29,188.09a2.25,2.25,0,0,0-2.24,2.24v4.8a2.24,2.24,0,0,0,4.48,0v-4.8A2.24,2.24,0,0,0,398.29,188.09Z"/><path class="cls-4" d="M398.29,226.48a2.25,2.25,0,0,0-2.24,2.24,2.24,2.24,0,0,0,0,4.48h4.48v-4.48A2.24,2.24,0,0,0,398.29,226.48Z"/><path class="cls-4" d="M336.3,228.72h-4a2.24,2.24,0,0,0,0,4.48h4a2.24,2.24,0,0,0,0-4.48Z"/><path class="cls-4" d="M352.24,228.72h-4a2.24,2.24,0,0,0,0,4.48h4a2.24,2.24,0,0,0,0-4.48Z"/><path class="cls-4" d="M368.17,228.72h-4a2.24,2.24,0,0,0,0,4.48h4a2.24,2.24,0,1,0,0-4.48Z"/><path class="cls-4" d="M384.1,228.72h-4a2.24,2.24,0,0,0,0,4.48h4a2.24,2.24,0,0,0,0-4.48Z"/><path class="cls-4" d="M320.37,228.72h-2.24a2.24,2.24,0,0,0,0,4.48h2.24a2.24,2.24,0,0,0,0-4.48Z"/><rect class="cls-3" x="8.38" y="179.28" width="102.62" height="73.19" transform="translate(-59.81 26.44) rotate(-16.79)"/><rect class="cls-4" x="15.95" y="191.82" width="89.62" height="55.18" transform="translate(-60.78 26.9) rotate(-16.79)"/><path class="cls-4" d="M76.33,180.63a2.36,2.36,0,1,1-2.94-1.57A2.35,2.35,0,0,1,76.33,180.63Z"/><path class="cls-4" d="M85.28,177.93a2.35,2.35,0,1,1-2.93-1.57A2.35,2.35,0,0,1,85.28,177.93Z"/><path class="cls-4" d="M94.24,175.23a2.36,2.36,0,1,1-2.94-1.58A2.36,2.36,0,0,1,94.24,175.23Z"/><rect class="cls-9" x="33.29" y="229.06" width="10.46" height="19.18" transform="translate(-67.3 21.3) rotate(-16.79)"/><rect class="cls-9" x="49.21" y="215.64" width="10.46" height="27.61" transform="translate(-63.96 25.51) rotate(-16.79)"/><rect class="cls-9" x="67.59" y="218.86" width="10.46" height="19.04" transform="translate(-62.85 30.76) rotate(-16.79)"/><rect class="cls-9" x="81.24" y="190.06" width="10.46" height="43.18" transform="translate(-57.44 33.99) rotate(-16.78)"/><path class="cls-10" d="M20.77,209.24a1.93,1.93,0,1,1-2.4-1.29A1.93,1.93,0,0,1,20.77,209.24Z"/><rect class="cls-10" x="22.73" y="204.64" width="21.62" height="1.51" transform="translate(-57.9 18.44) rotate(-16.79)"/><path class="cls-10" d="M22.36,214.51a1.93,1.93,0,1,1-2.4-1.29A1.93,1.93,0,0,1,22.36,214.51Z"/><rect class="cls-10" x="24.32" y="209.91" width="21.62" height="1.51" transform="translate(-59.35 19.13) rotate(-16.79)"/><path class="cls-4" d="M140.13,135.51a.5.5,0,0,0,0-.13V111.81s0-.07,0-.11a1.74,1.74,0,0,0,0-.22.85.85,0,0,0-.09-.22s0-.06,0-.09l-.07-.07a1,1,0,0,0-.18-.17l-.16-.12-.21-.08-.22,0-.11,0H104.49l-.1,0-.23,0-.2.08-.17.12a.91.91,0,0,0-.17.17.46.46,0,0,0-.07.07.36.36,0,0,0,0,.09.85.85,0,0,0-.09.22.87.87,0,0,0,0,.22s0,.07,0,.11v8.32H93.44l-.25.05-.18,0a1.77,1.77,0,0,0-.17.12.7.7,0,0,0-.19.15l0,0a.64.64,0,0,0-.08.14.88.88,0,0,0-.12.21,1,1,0,0,0,0,.24.76.76,0,0,0,0,.16v23.58A1.14,1.14,0,0,0,93.48,146H128a1.15,1.15,0,0,0,1.15-1.14v-4.58a1.77,1.77,0,0,0,0-.23v-3.52H139a1.09,1.09,0,0,0,.48-.11s.07,0,.11-.07a1.23,1.23,0,0,0,.28-.23s0,0,.05,0a.61.61,0,0,0,0-.12,2.12,2.12,0,0,0,.11-.21A1.85,1.85,0,0,0,140.13,135.51Zm-11-8.94v-5.3a.75.75,0,0,0,0-.16,2,2,0,0,0,0-.24.92.92,0,0,0-.13-.21s0-.1-.07-.14,0,0,0,0a.83.83,0,0,0-.21-.16l0,0,9.28-6.34V133.1Zm-34.53-2.8,10.42,9-10.42,5.41Zm13.16,8.41h0l-11.24-9.77H125l-11.25,9.77h0l-3,2.57Zm17-12.05H118.7L108.19,113h27.13Zm2,3.64v14.45l-10.41-5.4ZM105.63,114l9,6.16h-9Zm-11,29.74v-2.9l12.27-6.38,3.1,2.69a1.13,1.13,0,0,0,.75.28,1.11,1.11,0,0,0,.75-.28l3.1-2.69,12.27,6.36v2.92Zm34.53-14.28,6.43,4.81h-6.43Z"/><path class="cls-11" d="M120.48,322.42l4.58-13.24c-.23.44,13,5.66,13,5.66l-10.6-11.28-.06.1.06-.1L90,293.31Zm6.28-17.52v0Z"/><polygon class="cls-8" points="138.06 314.84 130.13 298.75 90 293.31 127.45 303.56 138.06 314.84"/><polygon class="cls-11" points="130.13 298.75 138.36 288.52 90 293.31 130.13 298.75"/><path class="cls-4" d="M146.4,316.08a1.34,1.34,0,0,1-1,0c-1.32-.62-2.05-1-2.08-1a1.34,1.34,0,0,1,1.29-2.36s.7.38,1.93,1a1.34,1.34,0,0,1,.64,1.79A1.3,1.3,0,0,1,146.4,316.08Z"/><path class="cls-4" d="M196.93,320.57q-1,.38-2,.69a1.34,1.34,0,1,1-.83-2.55,25.53,25.53,0,0,0,4-1.61,1.34,1.34,0,1,1,1.24,2.38A21.8,21.8,0,0,1,196.93,320.57Zm-10.77,2.67a1.63,1.63,0,0,1-.3.07c-1.52.2-3.08.34-4.64.41a1.34,1.34,0,1,1-.13-2.68c1.49-.07,3-.21,4.42-.39a1.34,1.34,0,0,1,.65,2.59ZM206.37,314a1.37,1.37,0,0,1-1.41-.29,1.35,1.35,0,0,1,0-1.9,42.23,42.23,0,0,0,2.87-3.34,1.34,1.34,0,1,1,2.12,1.64,42,42,0,0,1-3,3.56A1.33,1.33,0,0,1,206.37,314Zm-33.82,9.37a1.37,1.37,0,0,1-.61.08c-1.5-.15-3-.35-4.59-.6a1.34,1.34,0,1,1,.43-2.65c1.49.24,3,.44,4.43.58a1.34,1.34,0,0,1,.34,2.59ZM214.29,303a1.36,1.36,0,0,1-1.13-.09,1.35,1.35,0,0,1-.52-1.83c.7-1.25,1.4-2.59,2.08-4a1.34,1.34,0,1,1,2.41,1.19c-.7,1.42-1.42,2.8-2.14,4.09A1.38,1.38,0,0,1,214.29,303Zm-55.12,17.86a1.41,1.41,0,0,1-.84,0c-1.46-.41-3-.87-4.41-1.37a1.34,1.34,0,0,1,.87-2.54c1.42.48,2.85.93,4.27,1.33a1.34,1.34,0,0,1,.11,2.55Zm60.89-30.22a1.35,1.35,0,0,1-1.73-1.75c.54-1.35,1.07-2.77,1.59-4.22a1.34,1.34,0,1,1,2.53.91c-.53,1.47-1.07,2.92-1.62,4.29A1.33,1.33,0,0,1,220.06,290.6Zm4.43-12.91a1.34,1.34,0,0,1-1.76-1.64c.44-1.47.86-2.92,1.25-4.35a1.34,1.34,0,1,1,2.59.71c-.4,1.45-.82,2.92-1.27,4.41A1.31,1.31,0,0,1,224.49,277.69Z"/><path class="cls-12" d="M223.08,192.73s9,45.23,44,58.44c0,0,5.82-4.7,9.85-3.8S288.31,257,288.31,257H265.47s-37.39-3.58-56.65-40.08l-1.12-13.65Z"/><path class="cls-13" d="M203.37,154.22s22.69,28.88,25.38,36.5c0,0-14.33,11.86-18.81,15.89,0,0-17-33.29-14.1-42.54C198.52,155.46,203.37,154.22,203.37,154.22Z"/><path class="cls-14" d="M169,146.75s-34.33,4.78-40.3,27.47,40.52,91.06,40.52,91.06h53.82S209.94,158.4,203.37,154.22,188.15,142.87,169,146.75Z"/><path class="cls-12" d="M187.55,133.62l-1.29,21c-4.84,3-22.29-2.77-22.29-2.77l2.38-23.05Z"/><path class="cls-15" d="M206.81,104.06s-.64,43.78-24.63,38.07C154,135.41,167,95.1,167,95.1Z"/><path class="cls-15" d="M167,116.3s-1.94-4.33-5.07-2.53-3.89,14.06,4.47,15Z"/><path class="cls-16" d="M161.88,113.77s4.62-.75,6.19,3.5l2.46-15.9s15.73,4.48,24.32,0c0,0,6.53,8.61,11.48,9.46s12.29-19.53,0-23.56c0,0-27.39-33.59-43,0,0,0-10.25.67-11.6,13s8,20.8,8,20.8S159.49,115,161.88,113.77Z"/><path class="cls-12" d="M166.73,229.9S197.18,261,227.18,261h59.56s-13.88-18.14-20.6-15.57A42.64,42.64,0,0,0,255,251.84s-42.84-8.11-69.56-39.88C185.39,212,172.43,212,166.73,229.9Z"/><path class="cls-13" d="M128.74,174.22s.59,42.4,37,61.5c0,0,14.48-21.55,19.63-23.76,0,0-17.9-40.67-29.78-48.49C149.56,159.5,137.1,160.79,128.74,174.22Z"/><path class="cls-17" d="M225.47,261a5.94,5.94,0,0,0-1.35,4.25H320.7s-1-4-2.38-4.25Z"/><polygon class="cls-18" points="286.74 265.28 311.9 187.36 350.11 187.36 324.73 265.28 286.74 265.28"/><path class="cls-4" d="M330.42,223.47c-.75,3.07-2.91,5.17-4.84,4.7s-2.87-3.33-2.12-6.39,2.91-5.17,4.83-4.7S331.16,220.41,330.42,223.47Z"/><path class="cls-19" d="M365.66,275.13H82.12A9.85,9.85,0,0,1,92,265.28H355.81a9.85,9.85,0,0,1,9.85,9.85Z"/><path class="cls-20" d="M166.19,265.28h-45.5a8.51,8.51,0,0,1-8.51-8.51h0a8.51,8.51,0,0,1,8.51-8.51h45.5Z"/><path class="cls-4" d="M166.19,260.52H120a3.75,3.75,0,0,1-3.75-3.75h0A3.75,3.75,0,0,1,120,253h46.19Z"/><path class="cls-3" d="M166.19,248.26h-45.5a8.51,8.51,0,0,1-8.51-8.51h0a8.51,8.51,0,0,1,8.51-8.51h45.5Z"/><path class="cls-4" d="M166.19,243.5H120a3.75,3.75,0,0,1-3.75-3.75h0A3.75,3.75,0,0,1,120,236h46.19Z"/><path class="cls-21" d="M116.56,168.68l.5,1.57.49-1.57a8.31,8.31,0,0,1,3.68-4.73h0a8.37,8.37,0,0,1-3.68-4.74l-.49-1.57-.5,1.57a8.37,8.37,0,0,1-3.68,4.74h0A8.31,8.31,0,0,1,116.56,168.68Z"/><path class="cls-21" d="M218.37,148l.93,3,.93-3a15.8,15.8,0,0,1,7-9h0a15.79,15.79,0,0,1-7-9l-.93-3-.93,3a15.84,15.84,0,0,1-7,9h0A15.85,15.85,0,0,1,218.37,148Z"/><path class="cls-21" d="M283.87,211.43l.93,3,.93-3a15.83,15.83,0,0,1,7-9h0a15.77,15.77,0,0,1-7-8.95l-.93-3-.93,3a15.81,15.81,0,0,1-7,8.95h0A15.87,15.87,0,0,1,283.87,211.43Z"/><path class="cls-21" d="M268.49,230.73l.61,2,.61-2a10.37,10.37,0,0,1,4.56-5.87h0a10.35,10.35,0,0,1-4.56-5.86l-.61-1.95-.61,1.95a10.35,10.35,0,0,1-4.56,5.86h0A10.37,10.37,0,0,1,268.49,230.73Z"/><path class="cls-21" d="M230.18,110.77l.61,2,.61-2A10.41,10.41,0,0,1,236,104.9h0A10.36,10.36,0,0,1,231.4,99l-.61-2-.61,2a10.32,10.32,0,0,1-4.56,5.86h0A10.37,10.37,0,0,1,230.18,110.77Z"/><path class="cls-21" d="M75.33,158.33l.86,2.74.86-2.74a14.59,14.59,0,0,1,6.42-8.26h0a14.59,14.59,0,0,1-6.42-8.26l-.86-2.74-.86,2.74a14.59,14.59,0,0,1-6.42,8.26h0A14.59,14.59,0,0,1,75.33,158.33Z"/><rect class="cls-5" x="363.66" y="98.46" width="66.28" height="81.23"/><path class="cls-5" d="M437.4,107.27v5.88h-7.46V98.46A8.93,8.93,0,0,1,437.4,107.27Z"/><rect class="cls-4" x="371.15" y="121.96" width="10.49" height="10.49"/><rect class="cls-4" x="386.85" y="121.96" width="35.6" height="2.62"/><rect class="cls-4" x="386.85" y="129.83" width="35.6" height="2.62"/><rect class="cls-4" x="371.15" y="145.69" width="10.49" height="10.5"/><rect class="cls-4" x="386.85" y="145.69" width="35.6" height="2.62"/><rect class="cls-4" x="386.85" y="153.57" width="35.6" height="2.62"/><polygon class="cls-22" points="377.3 129.38 372.93 125.61 374.69 123.57 376.93 125.51 381.49 119.77 383.6 121.44 377.3 129.38"/><polygon class="cls-22" points="377.3 152.51 372.93 148.74 374.69 146.71 376.93 148.65 381.49 142.9 383.6 144.57 377.3 152.51"/></g></g></svg>