<svg xmlns="http://www.w3.org/2000/svg" xmlns:xlink="http://www.w3.org/1999/xlink" viewBox="0 0 2791.13 2767.1"><defs><style>.cls-1{fill:#f49c74;}.cls-2{fill:#f4b952;}.cls-3{fill:#f4c274;}.cls-4{fill:#443c4c;}.cls-5{fill:#6a4c48;}.cls-21,.cls-6{fill:#f3e0c8;}.cls-6{isolation:isolate;opacity:0.53;}.cls-7{fill:#ec8d67;}.cls-8{fill:#ca443b;}.cls-9{fill:url(#linear-gradient);}.cls-10{fill:#ad564d;}.cls-11{fill:#612c2d;}.cls-12{fill:url(#linear-gradient-2);}.cls-13{fill:url(#linear-gradient-3);}.cls-14{fill:#912c2d;}.cls-15{fill:url(#linear-gradient-4);}.cls-16{fill:url(#linear-gradient-5);}.cls-17{fill:#f39269;}.cls-18{fill:#38303b;}.cls-19{fill:url(#linear-gradient-6);}.cls-20{fill:url(#linear-gradient-7);}.cls-22{fill:url(#linear-gradient-8);}.cls-23{fill:url(#linear-gradient-9);}.cls-24{fill:url(#linear-gradient-10);}.cls-25{fill:url(#linear-gradient-11);}.cls-26{font-size:150px;font-family:Montreal-Regular, Montreal;}.cls-26,.cls-28{fill:#fff;}.cls-27{letter-spacing:0em;}.cls-28{font-size:200px;font-family:Montreal-Bold, Montreal;font-weight:700;}</style><linearGradient id="linear-gradient" x1="967.73" y1="1626.52" x2="1410.07" y2="2551.41" gradientTransform="translate(2791.13 2768.01) rotate(180)" gradientUnits="userSpaceOnUse"><stop offset="0" stop-color="#e1473d"/><stop offset="1" stop-color="#e9605a"/></linearGradient><linearGradient id="linear-gradient-2" x1="494.82" y1="204.69" x2="565.86" y2="204.69" gradientTransform="translate(2144.72 2768.01) rotate(180)" gradientUnits="userSpaceOnUse"><stop offset="0" stop-color="#febbba"/><stop offset="1" stop-color="#ff928e"/></linearGradient><linearGradient id="linear-gradient-3" x1="95.81" y1="241.74" x2="180.71" y2="241.74" xlink:href="#linear-gradient-2"/><linearGradient id="linear-gradient-4" x1="1244.64" y1="1727.09" x2="907.86" y2="958.02" gradientTransform="translate(2791.13 2768.01) rotate(180)" gradientUnits="userSpaceOnUse"><stop offset="0" stop-color="#fe7062"/><stop offset="1" stop-color="#ff928e"/></linearGradient><linearGradient id="linear-gradient-5" x1="514.09" y1="1747.44" x2="550.88" y2="1940.58" xlink:href="#linear-gradient-2"/><linearGradient id="linear-gradient-6" x1="747.77" y1="2051.22" x2="973.97" y2="2765" xlink:href="#linear-gradient-2"/><linearGradient id="linear-gradient-7" x1="-9194.79" y1="13874.99" x2="-8968.59" y2="14588.77" gradientTransform="matrix(1, 0, 0, -1, 14735.08, 2768.01)" xlink:href="#linear-gradient-2"/><linearGradient id="linear-gradient-8" x1="1514.07" y1="1609.1" x2="1177.29" y2="840.03" xlink:href="#linear-gradient-4"/><linearGradient id="linear-gradient-9" x1="7338" y1="6233.39" x2="7639.6" y2="6369.11" gradientTransform="matrix(-0.99, 0.11, -0.11, -0.99, -48.9, 3582.36)" xlink:href="#linear-gradient-2"/><linearGradient id="linear-gradient-10" x1="7345.63" y1="6217.53" x2="7647.24" y2="6353.25" gradientTransform="matrix(-0.99, 0.11, -0.11, -0.99, -48.9, 3582.36)" xlink:href="#linear-gradient-2"/><linearGradient id="linear-gradient-11" x1="1381.65" y1="1753.42" x2="1421.93" y2="1753.42" xlink:href="#linear-gradient"/></defs><g id="Layer_2" data-name="Layer 2"><g id="Layer_1-2" data-name="Layer 1"><g id="Layer_2-2" data-name="Layer 2"><g id="Illustration"><path class="cls-1" d="M2788.73,662.79c35.1-310.35-324.29-580.7-437.6-657.72A29.21,29.21,0,0,0,2307,20c-15.84,47.06-55.2,153.64-153.38,393.94-167.62,410.44,59.58,565.72,157,698.22s-32.58,412.6-32.58,412.6S2747.13,1030.73,2788.73,662.79Z"/><path class="cls-2" d="M2390.33,156.81c-11.68,4.3,6.51,13.2,45.37,164.79l5.25,19.93c48.22,200.06,80.92,425.45,50.52,630-26.34,165.91-91.27,334.2-166,459.64.05-.32-5,8.28,2.72,13.56h0a9.87,9.87,0,0,0,13.71-2.6c48.63-71.29,105.79-186.05,142-302.44,44.37-139.13,45.65-227.75,50.28-267.68,9.61-250.28-54-532.42-136.87-712.29A5.6,5.6,0,0,0,2390.33,156.81Z"/><path class="cls-1" d="M2097.68,1081c3.44-185.36-48.43-225.13-147-280.77s-190.72-172.77-185-307.92c4.33-102.54-66-228.58-100.26-283.44a15.48,15.48,0,0,1,15.23-23.53c104,14,419.44,64.45,483.3,167.88,76.74,124.27,99.83,335,68.83,530.61-65.81,415.08-46.31,753.84-62.31,738.27C2124.87,1577.87,2094.24,1266.39,2097.68,1081Z"/><path class="cls-3" d="M1801.71,282.59a2.84,2.84,0,0,0-2.14,5.25c-.27-.15,94.85,37.37,177.67,128.12,73.85,83.33,83.66,148.38,96.8,244,12.69,87.83,26.61,204.3,33.26,294.75a3.59,3.59,0,0,0,3.55,3.38h0a3.53,3.53,0,0,0,3.51-3.55c-.84-156.56-29.68-354.48-36.75-383.3l-3.11-12.32c-33.37-129.39-149.24-230.28-272.79-276.28Z"/><path class="cls-4" d="M2690.77,702.54c0-1.89,0-3.78,0-5.67a114.24,114.24,0,0,0-117.22-111.18l-2395.82,62c-53.79-3.65-83.14,45-83.14,69.89L115,2126.36a45.45,45.45,0,0,0,45.34,45.29H2611.8a45.44,45.44,0,0,0,45.33-45.29Z"/><path class="cls-5" d="M2646.5,721.57c0-1.34,0-2.67,0-4a80.28,80.28,0,0,0-82.36-78.16L267.94,701C227,699.38,159.56,727,157.3,804l19.28,1278.9a43,43,0,0,0,42.88,42.89h2350a43,43,0,0,0,42.88-42.89Z"/><rect class="cls-4" y="2164.81" width="2783.57" height="123.78" rx="5.65"/><path class="cls-6" d="M1830.06,825.78l-.28-39.87h0a8.27,8.27,0,0,1,8.23-8.33l623.47-4.37a8.29,8.29,0,0,1,8.34,8.23l.28,39.87h0a8.29,8.29,0,0,1-8.22,8.34L1838.4,834A8.3,8.3,0,0,1,1830.06,825.78Z"/><path class="cls-6" d="M1429.44,830.13l-.28-40.54a8,8,0,0,1,7.89-8l208.69-1.46a8,8,0,0,1,8,7.89l.28,40.55h0a8,8,0,0,1-7.89,8L1437.44,838A8,8,0,0,1,1429.44,830.13Z"/><path class="cls-6" d="M952.31,841.43a12.62,12.62,0,0,1-12.72-12.52l-.22-31.18h0A12.62,12.62,0,0,1,951.91,785l418.22-3h.07a12.62,12.62,0,0,1,12.71,12.55l.22,31.17h0a12.64,12.64,0,0,1-12.55,12.71l-418.27,2.93Z"/><rect class="cls-6" x="2300.05" y="872.89" width="171.58" height="56.44" rx="12.63" transform="translate(-6.23 16.68) rotate(-0.4)"/><path class="cls-6" d="M1837.83,933.29a8.28,8.28,0,0,1-8.34-8.22l-.28-39.88a8.28,8.28,0,0,1,8.22-8.33l448.91-3.15h0a8.27,8.27,0,0,1,8.34,8.22l.28,39.88a8.3,8.3,0,0,1-8.23,8.34l-448.9,3.14Z"/><path class="cls-6" d="M1428.32,929.43l-.28-40.54a8,8,0,0,1,7.89-8l208.69-1.46h0a7.93,7.93,0,0,1,8,7.89l.28,40.55h0a8,8,0,0,1-7.89,8l-208.68,1.46A8,8,0,0,1,1428.32,929.43Z"/><path class="cls-6" d="M589.88,943.26a12.63,12.63,0,0,1-12.72-12.54l-.22-31.18a12.64,12.64,0,0,1,12.54-12.72L1214,882.45h0A12.62,12.62,0,0,1,1226.69,895l.22,31.18a12.65,12.65,0,0,1-12.54,12.72l-624.49,4.37Z"/><rect class="cls-6" x="2300.86" y="972.03" width="171.58" height="56.44" rx="12.63" transform="translate(-6.92 16.69) rotate(-0.4)"/><path class="cls-6" d="M1838.75,1032.44a8.28,8.28,0,0,1-8.34-8.22l-.28-39.87h0a8.28,8.28,0,0,1,8.22-8.34l448.91-3.16a8.29,8.29,0,0,1,8.34,8.23l.28,39.87h0a8.28,8.28,0,0,1-8.23,8.33l-448.9,3.15Z"/><path class="cls-6" d="M1429.18,1028.55,1428.9,988h0a7.93,7.93,0,0,1,7.89-8l208.69-1.44a8,8,0,0,1,8,7.89l.28,40.55h0a8,8,0,0,1-7.89,8l-208.74,1.46A8,8,0,0,1,1429.18,1028.55Z"/><path class="cls-6" d="M314.12,1044.34a12.63,12.63,0,0,1-12.72-12.54l-.22-31.18h0a12.62,12.62,0,0,1,12.55-12.71l821.4-5.75h0a12.62,12.62,0,0,1,12.72,12.54l.22,31.18h0a12.63,12.63,0,0,1-12.54,12.72l-821.41,5.75Z"/><rect class="cls-6" x="2298.93" y="1074.64" width="171.59" height="56.44" rx="12.63" transform="matrix(1, -0.01, 0.01, 1, -10.91, 23.9)"/><path class="cls-6" d="M1837,1131.74a8.28,8.28,0,0,1-8.34-8.22l-.28-39.88h0a8.28,8.28,0,0,1,8.22-8.34l448.91-3.14a8.28,8.28,0,0,1,8.33,8.22l.28,39.88h0a8.29,8.29,0,0,1-8.22,8.34l-448.9,3.14Z"/><path class="cls-6" d="M1428.07,1127.88l-.28-40.54h0a7.93,7.93,0,0,1,7.89-8l208.69-1.47a8,8,0,0,1,8,7.89l.28,40.55h0a8,8,0,0,1-7.89,8l-208.69,1.46A8,8,0,0,1,1428.07,1127.88Z"/><path class="cls-6" d="M310.39,1143.66a12.63,12.63,0,0,1-12.71-12.55l-.22-31.17v0a12.62,12.62,0,0,1,12.54-12.7l821.41-5.75h0a12.62,12.62,0,0,1,12.72,12.54l.21,31.17h0a12.64,12.64,0,0,1-12.55,12.71l-821.4,5.76Z"/><rect class="cls-6" x="2301.43" y="1174.34" width="171.58" height="56.44" rx="12.63" transform="translate(-8.34 16.7) rotate(-0.4)"/><path class="cls-6" d="M1838.64,1234.76a8.28,8.28,0,0,1-8.34-8.22l-.28-39.88h0a8.28,8.28,0,0,1,8.22-8.34l448.91-3.14h0a8.27,8.27,0,0,1,8.34,8.22l.28,39.88a8.28,8.28,0,0,1-8.22,8.33l-448.91,3.15Z"/><path class="cls-6" d="M1437.44,1238.79a8,8,0,0,1-8-7.89l-.29-40.54h0a7.93,7.93,0,0,1,7.89-8l208.69-1.47a8,8,0,0,1,8,7.89l.28,40.55h0a8,8,0,0,1-7.89,8l-208.65,1.46Z"/><path class="cls-6" d="M312.79,1246.67a12.63,12.63,0,0,1-12.72-12.54l-.22-31.18a12.64,12.64,0,0,1,12.54-12.72l821.41-5.75h0a12.62,12.62,0,0,1,12.72,12.54l.22,31.18a12.65,12.65,0,0,1-12.55,12.72l-821.4,5.75Z"/><rect class="cls-6" x="2300.75" y="1273.64" width="171.58" height="56.44" rx="12.63" transform="translate(-9.03 16.69) rotate(-0.4)"/><path class="cls-6" d="M1836.89,1334.06a8.28,8.28,0,0,1-8.34-8.22l-.28-39.88a8.28,8.28,0,0,1,8.22-8.33l448.91-3.15h0a8.27,8.27,0,0,1,8.34,8.22l.28,39.88a8.3,8.3,0,0,1-8.23,8.34l-448.9,3.14Z"/><path class="cls-6" d="M1436.36,1338.09a8,8,0,0,1-8-7.89l-.29-40.54h0a7.93,7.93,0,0,1,7.89-8l208.69-1.47a8,8,0,0,1,8,7.89l.28,40.55h0a8,8,0,0,1-7.89,8l-208.68,1.46Z"/><path class="cls-6" d="M880.61,1342a12.63,12.63,0,0,1-12.72-12.54l-.22-31.17a12.64,12.64,0,0,1,12.55-12.72l493.46-3.46h0a12.61,12.61,0,0,1,12.7,12.54l.22,31.18v0a12.63,12.63,0,0,1-12.54,12.7L880.61,1342Z"/><path class="cls-6" d="M1829.13,1425l-.29-39.9a8.29,8.29,0,0,1,8.23-8.34l627-4.39h0a8.27,8.27,0,0,1,8.34,8.22l.28,39.88a8.3,8.3,0,0,1-8.23,8.34l-627,4.39A8.29,8.29,0,0,1,1829.13,1425Z"/><path class="cls-6" d="M1437.22,1437.23a8,8,0,0,1-8-7.89l-.29-40.54h0a7.93,7.93,0,0,1,7.89-8l208.69-1.46h0a7.93,7.93,0,0,1,8,7.89l.28,40.54h0a8,8,0,0,1-7.89,8l-208.68,1.46Z"/><path class="cls-6" d="M636.41,1442.84a12.63,12.63,0,0,1-12.72-12.54l-.21-31.17v0a12.62,12.62,0,0,1,12.54-12.7l621.45-4.36h0a12.62,12.62,0,0,1,12.71,12.55l.22,31.17h0a12.63,12.63,0,0,1-12.54,12.72l-621.46,4.35Z"/><rect class="cls-6" x="2307.33" y="1472.05" width="164.72" height="56.44" rx="12.63" transform="translate(-10.42 16.72) rotate(-0.4)"/><path class="cls-6" d="M1836,1532.51a8.28,8.28,0,0,1-8.32-8.24l-.28-39.88h0a8.28,8.28,0,0,1,8.22-8.34l448.9-3.14h0a8.27,8.27,0,0,1,8.34,8.22l.28,39.88a8.29,8.29,0,0,1-8.17,8.36l-448.91,3.14Z"/><path class="cls-6" d="M1436.12,1536.53a8,8,0,0,1-8-7.89l-.29-40.54h0a7.93,7.93,0,0,1,7.89-8l208.69-1.46h0a7.93,7.93,0,0,1,8,7.89l.28,40.54h0a8,8,0,0,1-7.89,8l-208.68,1.46Z"/><path class="cls-6" d="M309.28,1544.43a12.63,12.63,0,0,1-12.71-12.55l-.22-31.17h0A12.62,12.62,0,0,1,308.89,1488l850.17-6a12.63,12.63,0,0,1,12.72,12.55l.22,31.17h0a12.64,12.64,0,0,1-12.54,12.72l-850.17,6Z"/><rect class="cls-6" x="2306.51" y="1768.33" width="171.58" height="56.44" rx="12.63" transform="translate(-12.48 16.75) rotate(-0.4)"/><path class="cls-6" d="M1834.09,1820.55l-.28-39.88h0a8.27,8.27,0,0,1,8.23-8.33l448.9-3.15h0a8.27,8.27,0,0,1,8.34,8.22l.28,39.88h0a8.29,8.29,0,0,1-8.22,8.34l-448.91,3.14A8.3,8.3,0,0,1,1834.09,1820.55Z"/><path class="cls-6" d="M1442.12,1832.8a8,8,0,0,1-8-7.89l-.29-40.55h0a7.93,7.93,0,0,1,7.89-8l208.69-1.46h0a7.93,7.93,0,0,1,8,7.89l.28,40.55a8,8,0,0,1-7.89,8l-208.68,1.46Z"/><path class="cls-6" d="M873.66,1824.15l-.22-31.18A12.64,12.64,0,0,1,886,1780.25l493.46-3.45h0a12.61,12.61,0,0,1,12.7,12.54l.22,31.17v0a12.63,12.63,0,0,1-12.54,12.7l-493.47,3.46A12.65,12.65,0,0,1,873.66,1824.15Z"/><path class="cls-6" d="M1843,1927.92a8.29,8.29,0,0,1-8.33-8.23l-.28-39.87h0a8.28,8.28,0,0,1,8.22-8.34l627-4.39h0a8.27,8.27,0,0,1,8.34,8.22l.28,39.88a8.29,8.29,0,0,1-8.22,8.34l-627,4.39Z"/><path class="cls-6" d="M1435,1924.05l-.28-40.55a8,8,0,0,1,7.89-8l208.69-1.46h0a7.93,7.93,0,0,1,8,7.89l.28,40.55h0a8,8,0,0,1-7.89,8L1443,1931.94A8,8,0,0,1,1435,1924.05Z"/><path class="cls-6" d="M629.8,1925l-.22-31.17h0a12.62,12.62,0,0,1,12.55-12.71l621.46-4.35h0a12.62,12.62,0,0,1,12.72,12.54l.22,31.17h0a12.64,12.64,0,0,1-12.55,12.71l-621.45,4.36A12.65,12.65,0,0,1,629.8,1925Z"/><rect class="cls-6" x="2313.12" y="1966.74" width="164.72" height="56.44" rx="12.63" transform="translate(-13.87 16.77) rotate(-0.4)"/><path class="cls-6" d="M1841.6,2027.22a8.28,8.28,0,0,1-8.34-8.22l-.28-39.88h0a8.28,8.28,0,0,1,8.22-8.34l448.91-3.14h0a8.27,8.27,0,0,1,8.34,8.22l.28,39.88a8.3,8.3,0,0,1-8.23,8.34l-448.9,3.14Z"/><path class="cls-6" d="M1433.88,2023.35l-.28-40.55a8,8,0,0,1,7.89-8l208.69-1.46h0a7.93,7.93,0,0,1,8,7.89l.28,40.55h0a8,8,0,0,1-7.89,8l-208.68,1.46A8,8,0,0,1,1433.88,2023.35Z"/><path class="cls-6" d="M302.69,2026.64l-.22-31.18h0A12.62,12.62,0,0,1,315,1982.74l850.17-6h0a12.62,12.62,0,0,1,12.72,12.54l.22,31.18a12.66,12.66,0,0,1-12.55,12.72l-850.16,6A12.63,12.63,0,0,1,302.69,2026.64Z"/><rect class="cls-6" x="2309.97" y="1573.02" width="164.72" height="56.44" rx="12.63" transform="translate(-11.12 16.74) rotate(-0.4)"/><path class="cls-6" d="M1840.31,1633.47a8.29,8.29,0,0,1-8.33-8.25l-.28-39.87h0a8.28,8.28,0,0,1,8.22-8.34l448.91-3.13a8.29,8.29,0,0,1,8.34,8.23l.28,39.87h0a8.29,8.29,0,0,1-8.22,8.34l-448.91,3.15Z"/><path class="cls-6" d="M1431.44,1629.59l-.29-40.55a8,8,0,0,1,7.89-8l208.69-1.46h0a7.93,7.93,0,0,1,8,7.89L1656,1628a8,8,0,0,1-7.89,8l-208.68,1.49A8,8,0,0,1,1431.44,1629.59Z"/><path class="cls-6" d="M304,1632.83l-.22-31.18a12.64,12.64,0,0,1,12.54-12.72l850.17-6h0a12.61,12.61,0,0,1,12.7,12.54l.22,31.17v0a12.63,12.63,0,0,1-12.54,12.7l-850.17,6A12.63,12.63,0,0,1,304,1632.83Z"/><rect class="cls-6" x="2309.34" y="1672.31" width="164.72" height="56.44" rx="12.63" transform="translate(-11.81 16.74) rotate(-0.4)"/><path class="cls-6" d="M1838.53,1732.77a8.28,8.28,0,0,1-8.34-8.22l-.28-39.88h0a8.28,8.28,0,0,1,8.22-8.34l448.95-3.14h0a8.27,8.27,0,0,1,8.34,8.22l.28,39.88a8.3,8.3,0,0,1-8.23,8.34l-448.9,3.14Z"/><path class="cls-6" d="M1430.34,1728.91l-.29-40.55a8,8,0,0,1,7.89-8l208.69-1.46h0a7.93,7.93,0,0,1,8,7.89l.29,40.54a8,8,0,0,1-7.89,8l-208.69,1.47A8,8,0,0,1,1430.34,1728.91Z"/><path class="cls-6" d="M300.06,1732.15l-.22-31.18a12.64,12.64,0,0,1,12.55-12.72l850.16-6h0a12.61,12.61,0,0,1,12.7,12.54l.22,31.17v0a12.63,12.63,0,0,1-12.54,12.7l-850.17,6A12.64,12.64,0,0,1,300.06,1732.15Z"/><path class="cls-6" d="M1741.13,2094.77a4.65,4.65,0,0,1-4.67-4.61l-9.68-1381.55h0a4.63,4.63,0,0,1,4.61-4.67l11.44-.08h0a4.63,4.63,0,0,1,4.66,4.6L1757.17,2090h0a4.63,4.63,0,0,1-4.6,4.66l-11.44.08Z"/><circle class="cls-7" cx="572.4" cy="1508.94" r="241.28"/><circle class="cls-8" cx="1133.97" cy="246.82" r="241.28"/><circle class="cls-7" cx="609.28" cy="368.16" r="238.76"/><circle class="cls-8" cx="430.71" cy="946.37" r="226.84" transform="translate(-543.03 581.74) rotate(-45)"/><path class="cls-9" d="M2166.32,2080.46c199.73-69.09,275.93-201,296.68-245.68,3.5-7.54,48.72-38.2,40.72-40.54-215.32-63.33-475.07-640.51-555.76-765.43C1814.45,822.13,1636.45,891.6,1636.45,891.6c34.81,13.33-7.37,42.32-65.89,41.33s-268.74-15.76-201.36,10.22,190,246.19,222.46,389.11,295.41,699.54,403.41,818.84c84.32,93.16,184.35,53.49,224.13,31.64a15,15,0,0,0,3.57-23.54C2192.25,2128.11,2166.32,2080.46,2166.32,2080.46Z"/><path class="cls-10" d="M1422.23,2677.79a8.71,8.71,0,0,0,7.1,13.08c31.62,1.92,120.46,6,232.17-.24a12.23,12.23,0,0,0,11.62-11.55c.05-1.16.11-2.42.11-3.74-11.78,4.71-32.24,8.19-67.78,6.63-59.12-2.6-134.11-8.67-177.32-12.41A71.28,71.28,0,0,0,1422.23,2677.79Z"/><path class="cls-11" d="M1673.19,2675.36c.3-19.3-3.51-55.25-29.7-93h-38.08s-134.84,35.13-177.32,87.24c43.21,3.74,118.2,9.81,177.32,12.41C1641,2683.53,1661.41,2680,1673.19,2675.36Z"/><path class="cls-12" d="M1578.86,2520.15l12.31,68.65a19.06,19.06,0,0,0,12.81,14.64,62.77,62.77,0,0,0,28.61,2.37,16.11,16.11,0,0,0,13.75-15.14l3.56-70.52Z"/><path class="cls-11" d="M2026.71,2746.46l.11.18a42,42,0,0,0,34.07,20.31c13.1.7,30-.74,45.43-9.2,12.78-7,19.17-21.69,16.41-35.88a2.29,2.29,0,0,1-.07-.36c-3.55,13.41-12,26-30.77,29.41C2060.64,2756.55,2040.83,2755.49,2026.71,2746.46Z"/><path class="cls-11" d="M1981.9,2600.56c6.15,37.57,19,102,44.81,145.9,14.12,9,33.93,10.09,65.18,4.46,18.77-3.41,27.22-16,30.77-29.41-9.83-50.5-39.87-180.9-87.71-179.63h-31.4S1974.89,2557.83,1981.9,2600.56Z"/><path class="cls-13" d="M1964,2492.37l25.61,73a15.75,15.75,0,0,0,12.83,10.49c12.62,1.52,26.35-3.75,36.11-8.75a18.83,18.83,0,0,0,9.8-21.33l-17.44-69.36Z"/><path class="cls-11" d="M1681.78,1543.23c76.41,111.58,362.78,949.37,362.78,949.37-36.46,24-80.52,29.26-80.52,29.26-84.43-231.93-350.43-697.38-350.43-697.38,33,199.67,47.12,720.42,47.12,720.42-47,17.07-90-2.49-90-2.49,2.57-5.4-153.27-979.5-153.27-979.5Z"/><path class="cls-14" d="M1614.39,1829.65l-57.35-91.6-41.22-8.3h0a3.88,3.88,0,1,1,1.53-7.61l42.86,8.62a3.83,3.83,0,0,1,2.52,1.75l58.24,93a3.84,3.84,0,0,1,.63,2.16,3.89,3.89,0,0,1-7.21,2Z"/><path class="cls-15" d="M1369.37,1084.39c-13.51,100.27-13.39,258.87,41.79,491.38a14.59,14.59,0,0,0,13,11.11c35.26,2.91,153.29,9.84,266.77-15.65a8.72,8.72,0,0,0,1.42-.46,8.34,8.34,0,0,0,4.43-10.93l-1-2.43a157.56,157.56,0,0,1-12.34-70.44c4.12-73.24,23.83-238.73,65.83-352.15,57.6,97.39,48,172.17,15.53,226.93a499.75,499.75,0,0,1,48.65,92.06c201.57-118.34,129-352.73,84.11-455.65a128.84,128.84,0,0,0-77.72-70.74c-165.79-54.78-366.15-48.27-426.95-44.71a120.93,120.93,0,0,0-32.65,6.44C1246,928.73,1317.81,1095.93,1369.37,1084.39Z"/><path class="cls-16" d="M1541.3,775.46l-5,117.29a25.52,25.52,0,0,0,14.17,24c56.28,27.59,97.43,11.6,114.58,1.8a12.27,12.27,0,0,0,5.78-14c-10.1-35.91-21.58-157.28-21.58-157.28Z"/><path class="cls-17" d="M1684.84,646.08c8.22,27.78-28.39,95.78-28.39,95.78-23.36,44.1-66.49,69.59-117.67,60.68s-41.64-37.64-39.18-81.91S1538.78,592,1538.78,592,1676.62,618.3,1684.84,646.08Z"/><path class="cls-18" d="M1652.14,710.05a3.19,3.19,0,0,1,.75.08,3.48,3.48,0,0,1,2.65,4.15l-8.45,38.35a1.18,1.18,0,0,0,0,.2,3.46,3.46,0,0,0,2.85,4c7.9,1.31,28.46,2.52,56-12.2,26.62-14.23,16.35-24.91,9.45-29.4a3.81,3.81,0,0,1-.77-.73,3.44,3.44,0,0,1,.61-4.84c38-31.11,45.12-68.94,27.77-83.52-10-8.39-17.43-7.06-22.09-4.22a3.57,3.57,0,0,1-1.87.57,3.48,3.48,0,0,1-3.52-3.44c-1-43.63-42.79-69.19-105.94-80.84-44.43-8.17-61-24.15-67.2-34a3.52,3.52,0,0,0-2-1.49,3.48,3.48,0,0,0-4.29,2.39h0a3.47,3.47,0,0,1-6.41.66l-2.14-4a3.53,3.53,0,0,0-4.61-1.51c-25.63,11.62-42.68,52.47-23.43,84.12,20,32.93,112.82,51.86,136.25,61.46,18.17,7.46,4.1,39.42-3.12,53.37a3.1,3.1,0,0,0-.21.45,7,7,0,0,0,3.65,9.2l2.91,1.28Z"/><path class="cls-17" d="M1643.53,741.83c19.47-2,56.16-47.29,32-62.39s-38.16,38.77-38.16,38.77Z"/><path class="cls-19" d="M1813.45,1453.81a499.75,499.75,0,0,0-48.65-92.06c-49.08,82.78-138.63,141.63-138.63,141.63-9-11.13-153.46,29.72-153.46,29.72l165.69,3.6C1711.67,1524.51,1769.45,1479.64,1813.45,1453.81Z"/><path class="cls-20" d="M1436.7,1515.32s76,43.91,123.13,49.12c86.66,9.57,83.25-56.43,83.25-56.43C1634.88,1514.79,1436.7,1515.32,1436.7,1515.32Z"/><path class="cls-4" d="M1601.27,1524.4a15,15,0,1,0-.75-30.07l-339.71-.37a15,15,0,1,0,0,30.09l339.71.37h.78Z"/><path class="cls-4" d="M934.42,1249.81l101.42,253.92a32.77,32.77,0,0,0,30.47,20.51H1417.9l-130.79-274.4a54,54,0,0,0-48.77-30.6H955.43C939.48,1219.24,928.56,1235.14,934.42,1249.81Z"/><path class="cls-21" d="M1122.42,1332.57c-11.71,3.73-16.24,22-10.11,40.88s20.61,31.1,32.32,27.37,16.24-22,10.11-40.88S1134.13,1328.84,1122.42,1332.57Z"/><path class="cls-22" d="M1007.27,1157.67c90.06,31.27,238.18,65.39,357.27-73.9l61.28-200S1345.19,853.39,1269,928c-57.73,56.5-121.09,153-253,147.5A166.15,166.15,0,0,0,1007.27,1157.67Z"/><path class="cls-23" d="M912.36,1110.55s37.54,27.26,94.87,47.15a166,166,0,0,1,8.8-82.23c-42.26-1.75-90.26-13.37-145.26-39.24l-45.55-18.52S808.57,1062.92,912.36,1110.55Z"/><path class="cls-24" d="M701.84,1108.59c55.65.53,109.8-8.47,161.9-30.47l19.3-32c-8.35-14.13-23.17-32.5-47-41.24-41.65-15.29-70-24.7-70-24.7s-2.24,22.65,18.36,28.13,20.49,16.83,20.49,16.83l-83.57,44.56A32,32,0,0,0,704.94,1092Z"/><path class="cls-25" d="M1369.2,1086c13.28-100.35,40.28-142.89,40.28-142.89Z"/></g></g><text class="cls-26" transform="translate(920.13 293.96)">HTML</text><text class="cls-26" transform="translate(465.63 414.6)"><tspan class="cls-27">C</tspan><tspan x="109.65" y="0">SS</tspan></text><text class="cls-26" transform="translate(331.12 1002.64)">JS</text><text class="cls-28" transform="translate(394.81 1579.58)">&lt;\&gt;</text></g></g></svg>