<svg xmlns="http://www.w3.org/2000/svg" xmlns:xlink="http://www.w3.org/1999/xlink" viewBox="0 0 2791.13 2767.09"><defs><style>.cls-1{isolation:isolate;}.cls-2{fill:#f49c74;}.cls-3{fill:#f4b952;}.cls-3,.cls-4{mix-blend-mode:soft-light;}.cls-4{fill:#f4c274;}.cls-5{fill:#443c4c;}.cls-6{fill:#6a4c48;}.cls-28,.cls-7{fill:#f3e0c8;}.cls-7{opacity:0.53;}.cls-8{fill:#ec8d67;}.cls-9{fill:#fff;}.cls-10{fill:#ca443b;}.cls-11{fill:url(#linear-gradient);}.cls-12{fill:url(#linear-gradient-2);}.cls-13{fill:url(#linear-gradient-3);}.cls-14{fill:url(#linear-gradient-4);}.cls-15{fill:url(#linear-gradient-5);}.cls-16{fill:url(#linear-gradient-6);}.cls-17{fill:#ad564d;}.cls-18{fill:#612c2d;}.cls-19{fill:url(#linear-gradient-7);}.cls-20{fill:url(#linear-gradient-8);}.cls-21{fill:#912c2d;}.cls-22{fill:url(#linear-gradient-9);}.cls-23{fill:url(#linear-gradient-10);}.cls-24{fill:#f39269;}.cls-25{fill:#38303b;}.cls-26{fill:url(#linear-gradient-11);}.cls-27{fill:url(#linear-gradient-12);}.cls-29{fill:url(#linear-gradient-13);}.cls-30{fill:url(#linear-gradient-14);}.cls-31{fill:url(#linear-gradient-15);}.cls-32{fill:url(#linear-gradient-16);}</style><linearGradient id="linear-gradient" x1="1540.96" y1="238.23" x2="1609.78" y2="238.23" gradientUnits="userSpaceOnUse"><stop offset="0" stop-color="#dae3fe"/><stop offset="1" stop-color="#e9effd"/></linearGradient><linearGradient id="linear-gradient-2" x1="1647.28" y1="233.81" x2="1772" y2="233.81" xlink:href="#linear-gradient"/><linearGradient id="linear-gradient-3" x1="2207.14" y1="944.29" x2="2294.82" y2="944.29" xlink:href="#linear-gradient"/><linearGradient id="linear-gradient-4" x1="2316.89" y1="946.59" x2="2397.44" y2="946.59" xlink:href="#linear-gradient"/><linearGradient id="linear-gradient-5" x1="2421.7" y1="949.24" x2="2508.03" y2="949.24" xlink:href="#linear-gradient"/><linearGradient id="linear-gradient-6" x1="967.73" y1="1141.49" x2="1410.07" y2="216.6" gradientUnits="userSpaceOnUse"><stop offset="0" stop-color="#e1473d"/><stop offset="1" stop-color="#e9605a"/></linearGradient><linearGradient id="linear-gradient-7" x1="494.81" y1="2563.31" x2="565.86" y2="2563.31" gradientTransform="translate(646.41)" gradientUnits="userSpaceOnUse"><stop offset="0" stop-color="#febbba"/><stop offset="1" stop-color="#ff928e"/></linearGradient><linearGradient id="linear-gradient-8" x1="95.8" y1="2526.26" x2="180.7" y2="2526.26" xlink:href="#linear-gradient-7"/><linearGradient id="linear-gradient-9" x1="1244.61" y1="1040.9" x2="907.83" y2="1809.97" gradientUnits="userSpaceOnUse"><stop offset="0" stop-color="#fe7062"/><stop offset="1" stop-color="#ff928e"/></linearGradient><linearGradient id="linear-gradient-10" x1="514.09" y1="1020.57" x2="550.88" y2="827.43" xlink:href="#linear-gradient-7"/><linearGradient id="linear-gradient-11" x1="747.76" y1="716.79" x2="973.96" y2="3.01" xlink:href="#linear-gradient-7"/><linearGradient id="linear-gradient-12" x1="-10906.81" y1="-11106.99" x2="-10680.61" y2="-11820.77" gradientTransform="matrix(-1, 0, 0, 1, -13655.95, 0)" xlink:href="#linear-gradient-7"/><linearGradient id="linear-gradient-13" x1="1514.11" y1="1158.92" x2="1177.33" y2="1927.99" xlink:href="#linear-gradient-9"/><linearGradient id="linear-gradient-14" x1="7423.62" y1="-3562.11" x2="7725.22" y2="-3697.83" gradientTransform="translate(3041.55 917.31) rotate(6.16)" xlink:href="#linear-gradient-7"/><linearGradient id="linear-gradient-15" x1="7431.22" y1="-3546.32" x2="7732.83" y2="-3682.04" gradientTransform="translate(3041.55 917.31) rotate(6.16)" xlink:href="#linear-gradient-7"/><linearGradient id="linear-gradient-16" x1="1381.65" y1="1014.59" x2="1421.93" y2="1014.59" xlink:href="#linear-gradient-6"/></defs><g class="cls-1"><g id="Layer_2" data-name="Layer 2"><g id="Illustration"><path class="cls-2" d="M513.12,1524.76s-130-280.1-32.58-412.6,324.62-287.78,157-698.22C539.36,173.64,500,67.06,484.16,20A29.22,29.22,0,0,0,440,5.06C326.69,82.08-32.7,352.43,2.4,662.78,44,1030.72,513.12,1524.76,513.12,1524.76Z"/><path class="cls-3" d="M393.78,159.71C310.88,339.58,247.3,621.72,256.91,872c4.63,39.93,5.91,128.55,50.28,267.68,36.21,116.39,93.37,231.15,142,302.44a9.87,9.87,0,0,0,13.72,2.6c7.75-5.28,2.67-13.88,2.72-13.56C390.93,1305.72,326,1137.43,299.66,971.52c-30.4-204.55,2.3-429.94,50.52-630l5.25-19.93C394.29,170,412.48,161.1,400.8,156.8A5.61,5.61,0,0,0,393.78,159.71Z"/><path class="cls-2" d="M620.66,1622.12c-16,15.57,3.5-323.19-62.31-738.27-31-195.6-7.91-406.34,68.83-530.61,63.86-103.43,379.28-153.87,483.3-167.88a15.48,15.48,0,0,1,15.23,23.53c-34.22,54.86-104.59,180.9-100.26,283.44,5.72,135.15-86.43,252.28-185,307.92s-150.44,95.41-147,280.77S666.26,1577.86,620.66,1622.12Z"/><path class="cls-4" d="M989.42,282.63C865.87,328.63,750,429.52,716.63,558.91l-3.11,12.32c-7.07,28.82-35.91,226.74-36.75,383.3a3.53,3.53,0,0,0,3.51,3.55,3.58,3.58,0,0,0,3.55-3.38c6.65-90.45,20.57-206.92,33.26-294.75,13.14-95.62,22.95-160.67,96.8-244,82.82-90.75,177.94-128.27,177.67-128.12a2.84,2.84,0,0,0-2.14-5.25Z"/><path class="cls-5" d="M134,2126.35a45.44,45.44,0,0,0,45.33,45.29H2630.81a45.45,45.45,0,0,0,45.34-45.29l20.4-1408.78c0-24.91-29.35-73.54-83.14-69.89l-2395.82-62A114.24,114.24,0,0,0,100.36,702.53Z"/><path class="cls-6" d="M178.79,2082.9a43,43,0,0,0,42.88,42.89h2350a43,43,0,0,0,42.88-42.89L2633.83,804c-2.26-77-69.74-104.63-110.64-103L227,639.4a80.29,80.29,0,0,0-82.37,82.16Z"/><rect class="cls-5" x="7.55" y="2164.81" width="2783.57" height="123.78" rx="5.65" transform="translate(2798.68 4453.39) rotate(180)"/><path class="cls-7" d="M952.73,834l-623.48-4.37a8.28,8.28,0,0,1-8.22-8.34l.28-39.87a8.29,8.29,0,0,1,8.34-8.23l623.47,4.37a8.28,8.28,0,0,1,8.23,8.34l-.28,39.87A8.29,8.29,0,0,1,952.73,834Z"/><path class="cls-7" d="M1353.69,838,1145,836.56a7.94,7.94,0,0,1-7.89-8l.28-40.55a8,8,0,0,1,8-7.89l208.69,1.46a8,8,0,0,1,7.89,8l-.28,40.54A8,8,0,0,1,1353.69,838Z"/><path class="cls-7" d="M1838.82,841.42l-418.27-2.93A12.63,12.63,0,0,1,1408,825.77l.22-31.17A12.63,12.63,0,0,1,1421,782.05L1839.22,785a12.63,12.63,0,0,1,12.54,12.72l-.22,31.18A12.62,12.62,0,0,1,1838.82,841.42Z"/><rect class="cls-7" x="377.08" y="815.33" width="56.44" height="171.58" rx="12.63" transform="translate(-498.64 1300.1) rotate(-89.6)"/><path class="cls-7" d="M953.3,933.28l-448.9-3.14a8.29,8.29,0,0,1-8.23-8.34l.28-39.88a8.28,8.28,0,0,1,8.34-8.22l448.91,3.15a8.28,8.28,0,0,1,8.22,8.33l-.28,39.88A8.28,8.28,0,0,1,953.3,933.28Z"/><path class="cls-7" d="M1354.8,937.32l-208.68-1.46a7.94,7.94,0,0,1-7.89-8l.28-40.55a7.94,7.94,0,0,1,8-7.89l208.69,1.46a8,8,0,0,1,7.89,8l-.28,40.54A8,8,0,0,1,1354.8,937.32Z"/><path class="cls-7" d="M2201.25,943.25l-624.49-4.37a12.64,12.64,0,0,1-12.54-12.72l.22-31.18a12.63,12.63,0,0,1,12.72-12.54l624.49,4.37a12.64,12.64,0,0,1,12.54,12.72l-.22,31.18A12.63,12.63,0,0,1,2201.25,943.25Z"/><rect class="cls-7" x="376.26" y="914.48" width="56.44" height="171.58" rx="12.63" transform="translate(-598.59 1397.73) rotate(-89.6)"/><path class="cls-7" d="M952.38,1032.43l-448.9-3.15a8.28,8.28,0,0,1-8.23-8.34l.28-39.87a8.29,8.29,0,0,1,8.34-8.23L952.78,976a8.28,8.28,0,0,1,8.22,8.34l-.28,39.87A8.28,8.28,0,0,1,952.38,1032.43Z"/><path class="cls-7" d="M1354,1036.46,1145.26,1035a7.94,7.94,0,0,1-7.89-8l.28-40.55a8,8,0,0,1,8-7.89L1354.34,980a7.94,7.94,0,0,1,7.89,8l-.28,40.54A8,8,0,0,1,1354,1036.46Z"/><path class="cls-7" d="M2477,1044.33l-821.41-5.75a12.63,12.63,0,0,1-12.54-12.72l.22-31.18A12.63,12.63,0,0,1,1656,982.14l821.4,5.75a12.63,12.63,0,0,1,12.55,12.72l-.22,31.18A12.63,12.63,0,0,1,2477,1044.33Z"/><rect class="cls-7" x="376.94" y="1013.77" width="56.44" height="171.58" rx="12.63" transform="matrix(0.01, -1, 1, 0.01, -697.21, 1497.02)"/><path class="cls-7" d="M954.13,1131.73l-448.9-3.14a8.28,8.28,0,0,1-8.22-8.34l.28-39.88a8.28,8.28,0,0,1,8.33-8.22l448.91,3.14a8.28,8.28,0,0,1,8.22,8.34l-.28,39.88A8.28,8.28,0,0,1,954.13,1131.73Z"/><path class="cls-7" d="M1355.06,1135.76l-208.69-1.46a7.94,7.94,0,0,1-7.89-8l.28-40.55a8,8,0,0,1,8-7.89l208.69,1.47a7.94,7.94,0,0,1,7.89,8l-.28,40.54A8,8,0,0,1,1355.06,1135.76Z"/><path class="cls-7" d="M2480.74,1143.65l-821.4-5.76a12.63,12.63,0,0,1-12.55-12.72L1647,1094a12.63,12.63,0,0,1,12.72-12.54l821.41,5.75a12.62,12.62,0,0,1,12.54,12.72l-.22,31.17A12.63,12.63,0,0,1,2480.74,1143.65Z"/><rect class="cls-7" x="375.7" y="1116.79" width="56.44" height="171.58" rx="12.63" transform="translate(-801.46 1598.07) rotate(-89.6)"/><path class="cls-7" d="M952.49,1234.75l-448.91-3.15a8.28,8.28,0,0,1-8.22-8.33l.28-39.88a8.28,8.28,0,0,1,8.34-8.22l448.91,3.14a8.28,8.28,0,0,1,8.22,8.34l-.28,39.88A8.28,8.28,0,0,1,952.49,1234.75Z"/><path class="cls-7" d="M1353.65,1238.78,1145,1237.32a7.94,7.94,0,0,1-7.89-8l.28-40.55a8,8,0,0,1,8-7.89l208.69,1.47a7.94,7.94,0,0,1,7.89,8l-.29,40.54A7.94,7.94,0,0,1,1353.65,1238.78Z"/><path class="cls-7" d="M2478.34,1246.66l-821.4-5.75a12.64,12.64,0,0,1-12.55-12.72l.22-31.18a12.63,12.63,0,0,1,12.72-12.54l821.41,5.75a12.64,12.64,0,0,1,12.54,12.72l-.22,31.18A12.63,12.63,0,0,1,2478.34,1246.66Z"/><rect class="cls-7" x="376.39" y="1216.09" width="56.44" height="171.58" rx="12.63" transform="translate(-900.08 1697.36) rotate(-89.6)"/><path class="cls-7" d="M954.24,1334.05l-448.9-3.14a8.29,8.29,0,0,1-8.23-8.34l.28-39.88a8.28,8.28,0,0,1,8.34-8.22l448.91,3.15a8.28,8.28,0,0,1,8.22,8.33l-.28,39.88A8.28,8.28,0,0,1,954.24,1334.05Z"/><path class="cls-7" d="M1354.76,1338.08l-208.68-1.46a7.94,7.94,0,0,1-7.89-8l.28-40.55a8,8,0,0,1,8-7.89l208.69,1.47a7.94,7.94,0,0,1,7.89,8l-.29,40.54A7.94,7.94,0,0,1,1354.76,1338.08Z"/><path class="cls-7" d="M1910.52,1342l-493.47-3.45a12.62,12.62,0,0,1-12.54-12.72l.22-31.18a12.62,12.62,0,0,1,12.72-12.54l493.46,3.46a12.64,12.64,0,0,1,12.55,12.72l-.22,31.17A12.63,12.63,0,0,1,1910.52,1342Z"/><path class="cls-7" d="M953.67,1433.2l-627-4.39a8.29,8.29,0,0,1-8.23-8.34l.28-39.88a8.28,8.28,0,0,1,8.34-8.22l627,4.39a8.29,8.29,0,0,1,8.23,8.34L962,1425A8.29,8.29,0,0,1,953.67,1433.2Z"/><path class="cls-7" d="M1353.9,1437.22l-208.68-1.46a7.94,7.94,0,0,1-7.89-8l.28-40.54a7.94,7.94,0,0,1,8-7.89l208.69,1.46a7.94,7.94,0,0,1,7.89,8l-.29,40.54A7.94,7.94,0,0,1,1353.9,1437.22Z"/><path class="cls-7" d="M2154.72,1442.83l-621.46-4.35a12.63,12.63,0,0,1-12.54-12.72l.22-31.17a12.63,12.63,0,0,1,12.72-12.55l621.45,4.36a12.62,12.62,0,0,1,12.54,12.72l-.21,31.17A12.63,12.63,0,0,1,2154.72,1442.83Z"/><rect class="cls-7" x="373.22" y="1417.94" width="56.44" height="164.72" rx="12.63" transform="translate(-1101.63 1891.22) rotate(-89.6)"/><path class="cls-7" d="M955.08,1532.5l-448.91-3.14A8.29,8.29,0,0,1,498,1521l.28-39.88a8.28,8.28,0,0,1,8.34-8.22l448.9,3.14a8.28,8.28,0,0,1,8.22,8.34l-.28,39.88A8.28,8.28,0,0,1,955.08,1532.5Z"/><path class="cls-7" d="M1355,1536.52l-208.68-1.46a7.94,7.94,0,0,1-7.89-8l.28-40.54a7.94,7.94,0,0,1,8-7.89l208.69,1.46a7.94,7.94,0,0,1,7.89,8l-.29,40.54A7.94,7.94,0,0,1,1355,1536.52Z"/><path class="cls-7" d="M2481.84,1544.42l-850.17-6a12.63,12.63,0,0,1-12.54-12.72l.22-31.17a12.64,12.64,0,0,1,12.72-12.55l850.17,6a12.63,12.63,0,0,1,12.54,12.72l-.22,31.17A12.63,12.63,0,0,1,2481.84,1544.42Z"/><rect class="cls-7" x="370.62" y="1710.8" width="56.44" height="171.58" rx="12.63" transform="translate(-1400.5 2182.83) rotate(-89.6)"/><path class="cls-7" d="M948.7,1828.76l-448.91-3.14a8.28,8.28,0,0,1-8.22-8.34l.28-39.88a8.28,8.28,0,0,1,8.34-8.22l448.9,3.15a8.28,8.28,0,0,1,8.23,8.33l-.28,39.88A8.29,8.29,0,0,1,948.7,1828.76Z"/><path class="cls-7" d="M1349,1832.79l-208.68-1.46a8,8,0,0,1-7.89-8l.28-40.55a7.94,7.94,0,0,1,8-7.89l208.69,1.46a7.94,7.94,0,0,1,7.89,8l-.29,40.55A7.94,7.94,0,0,1,1349,1832.79Z"/><path class="cls-7" d="M1904.75,1836.68l-493.47-3.46a12.62,12.62,0,0,1-12.54-12.72l.22-31.17a12.62,12.62,0,0,1,12.72-12.54l493.46,3.45a12.64,12.64,0,0,1,12.55,12.72l-.22,31.18A12.64,12.64,0,0,1,1904.75,1836.68Z"/><path class="cls-7" d="M948.12,1927.91l-627-4.39a8.29,8.29,0,0,1-8.22-8.34l.28-39.88a8.28,8.28,0,0,1,8.34-8.22l627,4.39a8.28,8.28,0,0,1,8.22,8.34l-.28,39.87A8.28,8.28,0,0,1,948.12,1927.91Z"/><path class="cls-7" d="M1348.13,1931.93l-208.68-1.46a7.94,7.94,0,0,1-7.89-8l.28-40.55a7.94,7.94,0,0,1,8-7.89l208.69,1.46a8,8,0,0,1,7.89,8l-.28,40.55A8,8,0,0,1,1348.13,1931.93Z"/><path class="cls-7" d="M2148.6,1937.54l-621.45-4.36a12.63,12.63,0,0,1-12.55-12.72l.22-31.17a12.63,12.63,0,0,1,12.72-12.54L2149,1881.1a12.63,12.63,0,0,1,12.55,12.72l-.22,31.17A12.65,12.65,0,0,1,2148.6,1937.54Z"/><rect class="cls-7" x="367.45" y="1912.64" width="56.44" height="164.72" rx="12.63" transform="translate(-1602.06 2376.69) rotate(-89.6)"/><path class="cls-7" d="M949.53,2027.21l-448.9-3.14a8.29,8.29,0,0,1-8.23-8.34l.28-39.88a8.28,8.28,0,0,1,8.34-8.22l448.91,3.14a8.28,8.28,0,0,1,8.22,8.34l-.28,39.88A8.28,8.28,0,0,1,949.53,2027.21Z"/><path class="cls-7" d="M1349.24,2031.23l-208.68-1.46a7.94,7.94,0,0,1-7.89-8l.28-40.55a7.94,7.94,0,0,1,8-7.89l208.69,1.46a8,8,0,0,1,7.89,8l-.28,40.55A8,8,0,0,1,1349.24,2031.23Z"/><path class="cls-7" d="M2475.72,2039.12l-850.16-5.95a12.65,12.65,0,0,1-12.55-12.72l.22-31.18a12.63,12.63,0,0,1,12.72-12.54l850.17,6a12.63,12.63,0,0,1,12.54,12.72l-.22,31.18A12.63,12.63,0,0,1,2475.72,2039.12Z"/><rect class="cls-7" x="370.59" y="1518.9" width="56.44" height="164.72" rx="12.63" transform="translate(-1205.21 1988.85) rotate(-89.6)"/><path class="cls-7" d="M950.81,1633.46l-448.91-3.15a8.28,8.28,0,0,1-8.22-8.34l.28-39.87a8.29,8.29,0,0,1,8.34-8.23L951.21,1577a8.28,8.28,0,0,1,8.22,8.34l-.28,39.87A8.29,8.29,0,0,1,950.81,1633.46Z"/><path class="cls-7" d="M1351.68,1637.49,1143,1636a8,8,0,0,1-7.89-8l.29-40.54a7.94,7.94,0,0,1,8-7.89l208.69,1.46a8,8,0,0,1,7.89,8l-.29,40.55A8,8,0,0,1,1351.68,1637.49Z"/><path class="cls-7" d="M2474.44,1645.35l-850.17-6a12.62,12.62,0,0,1-12.54-12.72l.22-31.17a12.62,12.62,0,0,1,12.72-12.54l850.17,6a12.64,12.64,0,0,1,12.54,12.72l-.22,31.18A12.63,12.63,0,0,1,2474.44,1645.35Z"/><rect class="cls-7" x="371.22" y="1618.2" width="56.44" height="164.72" rx="12.63" transform="translate(-1303.88 2088.08) rotate(-89.6)"/><path class="cls-7" d="M952.56,1732.76l-448.9-3.14a8.29,8.29,0,0,1-8.23-8.34l.28-39.88a8.28,8.28,0,0,1,8.34-8.22L953,1676.32a8.28,8.28,0,0,1,8.22,8.34l-.28,39.88A8.28,8.28,0,0,1,952.56,1732.76Z"/><path class="cls-7" d="M1352.79,1736.79l-208.69-1.47a8,8,0,0,1-7.89-8l.29-40.54a7.94,7.94,0,0,1,8-7.89l208.69,1.46a8,8,0,0,1,7.89,8l-.29,40.55A8,8,0,0,1,1352.79,1736.79Z"/><path class="cls-7" d="M2478.35,1744.67l-850.17-6a12.62,12.62,0,0,1-12.54-12.72l.22-31.17a12.62,12.62,0,0,1,12.72-12.54l850.16,6a12.64,12.64,0,0,1,12.55,12.72l-.22,31.18A12.64,12.64,0,0,1,2478.35,1744.67Z"/><path class="cls-7" d="M1050,2094.76l-11.44-.08a4.63,4.63,0,0,1-4.6-4.67l9.67-1381.56a4.63,4.63,0,0,1,4.67-4.6l11.44.08a4.64,4.64,0,0,1,4.61,4.67l-9.68,1381.55A4.64,4.64,0,0,1,1050,2094.76Z"/><circle class="cls-8" cx="2218.73" cy="1508.93" r="241.28"/><path class="cls-9" d="M2154,1561.29,2059.18,1513v-15.54l94.84-54.91V1469l-65.61,35,65.61,30.87Z"/><path class="cls-9" d="M2254.9,1421.14l-53.94,163-27.09-.27,53.51-162.35Z"/><path class="cls-9" d="M2275,1535.31l69.31-31.63L2275,1468.22v-26.93L2376,1496.68V1513L2275,1562.12Z"/><circle class="cls-10" cx="1657.16" cy="246.81" r="241.28"/><path class="cls-11" d="M1560.27,343.15a69.09,69.09,0,0,1-19.31-2.76V312.05a61.44,61.44,0,0,0,15.39,2.37q10.8.13,15.49-6.84t4.68-21.91V134.08l33.26-.78V285.64q0,28.51-12.6,43.26T1560.27,343.15Z"/><path class="cls-12" d="M1772,277.3q0,26.54-19,41.59t-52.23,14.44q-30.42-.45-53.46-12.31v-37.7q19,8.78,32.21,12.43a95.43,95.43,0,0,0,24.38,3.76q13.34.11,20.52-5t7.18-15.37A17.18,17.18,0,0,0,1728.4,269a35.2,35.2,0,0,0-9.27-8.58q-6.11-4.12-24.78-13.1-17.4-8.28-26-15.86a58.8,58.8,0,0,1-13.75-17.63q-5.13-10-5.13-23.53,0-25.41,16.88-40.27t47.22-15.66a111.45,111.45,0,0,1,28.67,2.94,195.32,195.32,0,0,1,28.84,9.54l-13.36,32.48a191.28,191.28,0,0,0-25.67-8.55,81.26,81.26,0,0,0-19.79-2.2q-11.51.19-17.63,5.71a18.21,18.21,0,0,0-6.11,14.2,17.61,17.61,0,0,0,2.47,9.41,26.81,26.81,0,0,0,7.87,7.71q5.42,3.72,25.74,13.37,27.08,12.88,37.25,26T1772,277.3Z"/><circle class="cls-8" cx="2181.85" cy="368.15" r="238.76"/><path class="cls-9" d="M2086.72,418.16l-17.44-1V379.43l-32.43-1.6V415.4l-17.23-.95V327.63l17.23.72v34.12l32.43,1.52V329.7l17.44.73Z"/><path class="cls-9" d="M2145.86,421.43l-17.82-1V347.73l-22.68-1V331.2l63.47,2.64v15.68l-23-1Z"/><path class="cls-9" d="M2224.25,425.77l-20.72-71.24-.53,0q1.11,21.44,1.12,28.59v41.55l-16.22-.89V334.64l24.74,1,20.42,69.47.36,0,21.81-67.72,25.25,1.05v90.39l-17.31-1V385.25c0-2,0-4.34.09-7s.32-9.61.8-20.93l-.53,0-22.46,69.37Z"/><path class="cls-9" d="M2308.87,430.45V339.67l18.84.78v75.1l36.33,1.92v16Z"/><circle class="cls-10" cx="2360.42" cy="946.36" r="226.84" transform="translate(22.17 1946.25) rotate(-45)"/><path class="cls-13" d="M2260.48,901.1q-13.84-.15-21.32,11.23T2231.74,944c.06,28.27,9.63,42.78,28.9,43.53q12.24.48,29.86-5.63l0,23a74.5,74.5,0,0,1-32.14,5.12c-16.74-.79-29.42-7-38.16-18.49s-13-27.53-13.09-48.29q-.06-19.61,6.28-34.29t18.39-22.6q12.12-7.9,28.63-7.88,17,0,34.38,9.22l-8.07,22.25a130.33,130.33,0,0,0-13.27-6.16A36.16,36.16,0,0,0,2260.48,901.1Z"/><path class="cls-14" d="M2397.44,977.54q0,18.13-12.31,28t-33.74,8.81q-19.62-.92-34.47-9.46l0-25.68a139.51,139.51,0,0,0,20.77,9.09,59.47,59.47,0,0,0,15.73,3q8.61.33,13.25-3t4.64-10.35a12.5,12.5,0,0,0-2.05-7,24.75,24.75,0,0,0-6-6q-3.95-2.93-16-9.41-11.23-6-16.81-11.32a41.63,41.63,0,0,1-8.88-12.28,37.23,37.23,0,0,1-3.32-16.15q0-17.34,10.86-27.2t30.49-9.89a69.06,69.06,0,0,1,18.55,2.51,124.79,124.79,0,0,1,18.69,7l-8.65,22a120.92,120.92,0,0,0-16.62-6.3,49.77,49.77,0,0,0-12.8-1.86q-7.44-.08-11.39,3.58a12.44,12.44,0,0,0-3.93,9.6,12.8,12.8,0,0,0,1.59,6.47,18.75,18.75,0,0,0,5.1,5.41c2.33,1.76,7.86,5,16.64,9.61q17.51,9.3,24.11,18.48T2397.44,977.54Z"/><path class="cls-15" d="M2508,981.34q0,18.78-13.24,29t-36.18,9.06q-21-1-36.91-9.85V983a152.36,152.36,0,0,0,22.23,9.44,65.67,65.67,0,0,0,16.85,3.17q9.24.38,14.21-3.1c3.32-2.31,5-5.89,5-10.71a12.55,12.55,0,0,0-2.18-7.27,26,26,0,0,0-6.43-6.25q-4.23-3-17.15-9.76-12-6.21-18-11.73a43.23,43.23,0,0,1-9.5-12.72,37.37,37.37,0,0,1-3.53-16.71q0-17.94,11.66-28.14T2467.54,879a76.49,76.49,0,0,1,19.89,2.59,138.1,138.1,0,0,1,20,7.29l-9.3,22.78a134.13,134.13,0,0,0-17.82-6.54,55.12,55.12,0,0,0-13.72-1.92q-8-.09-12.21,3.7a13.85,13.85,0,0,0-2.52,16.63,19.57,19.57,0,0,0,5.45,5.61q3.73,2.73,17.82,10,18.77,9.64,25.83,19.16T2508,981.34Z"/><path class="cls-16" d="M568.36,2159.19a15,15,0,0,0,3.57,23.54c39.78,21.85,139.81,61.52,224.13-31.64,108-119.3,371-675.92,403.41-818.84s155.08-363.13,222.46-389.11-142.84-11.21-201.36-10.22-100.7-28-65.89-41.33c0,0-178-69.47-311.51,137.21-80.69,124.92-340.44,702.1-555.76,765.43-8,2.34,37.22,33,40.72,40.54,20.75,44.65,96.95,176.59,296.68,245.68C624.81,2080.45,598.88,2128.1,568.36,2159.19Z"/><path class="cls-17" d="M1363,2669.55c-43.21,3.74-118.2,9.81-177.32,12.41-35.54,1.56-56-1.92-67.78-6.63,0,1.32.06,2.58.11,3.74a12.22,12.22,0,0,0,11.62,11.55c111.71,6.24,200.55,2.16,232.17.24a8.71,8.71,0,0,0,7.1-13.08A72.91,72.91,0,0,0,1363,2669.55Z"/><path class="cls-18" d="M1185.72,2682c59.12-2.6,134.11-8.67,177.32-12.41-42.48-52.11-177.32-87.24-177.32-87.24h-38.08c-26.19,37.75-30,73.7-29.7,93C1129.72,2680,1150.18,2683.52,1185.72,2682Z"/><path class="cls-19" d="M1141.23,2520.14l3.56,70.52a16.1,16.1,0,0,0,13.75,15.14,62.59,62.59,0,0,0,28.61-2.37,19.07,19.07,0,0,0,12.81-14.64l12.31-68.65Z"/><path class="cls-18" d="M699.24,2750.91c-18.74-3.38-27.22-16-30.77-29.41,0,.12-.05.24-.07.36-2.76,14.19,3.63,28.89,16.41,35.88,15.44,8.46,32.33,9.9,45.43,9.2a42,42,0,0,0,34.07-20.31l.11-.18C750.3,2755.48,730.49,2756.54,699.24,2750.91Z"/><path class="cls-18" d="M787.58,2541.87h-31.4c-47.84-1.27-77.88,129.13-87.71,179.63,3.55,13.45,12,26,30.77,29.41,31.25,5.63,51.06,4.57,65.18-4.46,25.84-43.95,38.66-108.33,44.81-145.9C816.24,2557.82,787.58,2541.87,787.58,2541.87Z"/><path class="cls-20" d="M760.21,2476.41l-17.44,69.36a18.83,18.83,0,0,0,9.8,21.33c9.76,5,23.49,10.27,36.11,8.75a15.74,15.74,0,0,0,12.83-10.49l25.61-73Z"/><path class="cls-18" d="M1373.67,1562.9S1217.83,2537,1220.4,2542.4c0,0-43,19.56-90,2.49,0,0,14.1-520.75,47.12-720.42,0,0-266,465.45-350.43,697.38,0,0-44.06-5.26-80.52-29.26,0,0,286.37-837.79,362.78-949.37Z"/><path class="cls-21" d="M1173.45,1831.5a3.88,3.88,0,0,1-3.29-6l58.24-93a3.86,3.86,0,0,1,2.52-1.75l42.86-8.62a3.88,3.88,0,1,1,1.53,7.61l-41.22,8.3-57.35,91.6A3.88,3.88,0,0,1,1173.45,1831.5Z"/><path class="cls-22" d="M1430.89,889.14a121.16,121.16,0,0,0-32.65-6.44c-60.8-3.56-261.16-10.07-426.95,44.71a128.84,128.84,0,0,0-77.72,70.74c-44.85,102.92-117.46,337.31,84.11,455.65a500,500,0,0,1,48.65-92.06c-32.46-54.76-42.07-129.54,15.53-226.93,42,113.42,61.71,278.91,65.83,352.15a157.49,157.49,0,0,1-12.34,70.44l-1,2.43a8.34,8.34,0,0,0,5.85,11.39c113.48,25.49,231.51,18.56,266.77,15.65a14.57,14.57,0,0,0,13-11.11c55.18-232.51,55.3-391.11,41.79-491.38C1473.32,1095.92,1545.1,928.72,1430.89,889.14Z"/><path class="cls-23" d="M1141.88,747.26s-11.48,121.37-21.58,157.28a12.27,12.27,0,0,0,5.78,14c17.15,9.8,58.3,25.79,114.58-1.8a25.51,25.51,0,0,0,14.17-24l-5-117.29Z"/><path class="cls-24" d="M1252.35,592s36.72,84.35,39.18,128.62,12,73-39.18,81.91-94.31-16.58-117.67-60.68c0,0-36.61-68-28.39-95.78S1252.35,592,1252.35,592Z"/><path class="cls-25" d="M1152.17,710.11l2.91-1.28a7,7,0,0,0,3.44-9.65c-7.22-13.95-21.29-45.91-3.12-53.37,23.43-9.6,116.23-28.53,136.25-61.46,19.25-31.65,2.2-72.5-23.43-84.12a3.53,3.53,0,0,0-4.61,1.51l-2.14,4a3.47,3.47,0,0,1-6.41-.66h0a3.47,3.47,0,0,0-6.27-.9c-6.15,9.85-22.77,25.83-67.2,34-63.15,11.65-104.9,37.21-105.94,80.84a3.48,3.48,0,0,1-5.39,2.87c-4.66-2.84-12.12-4.17-22.09,4.22-17.35,14.58-10.25,52.41,27.77,83.52a3.45,3.45,0,0,1-.16,5.57c-6.9,4.49-17.17,15.17,9.45,29.4,27.54,14.72,48.1,13.51,56,12.2a3.46,3.46,0,0,0,2.81-4.18l-8.45-38.35a3.48,3.48,0,0,1,3.4-4.23Z"/><path class="cls-24" d="M1153.76,718.2s-14-53.87-38.16-38.77,12.53,60.37,32,62.39Z"/><path class="cls-26" d="M1152.73,1536.69l165.69-3.6s-144.49-40.85-153.46-29.72c0,0-89.55-58.85-138.63-141.63a500,500,0,0,0-48.65,92.06C1021.68,1479.63,1079.46,1524.5,1152.73,1536.69Z"/><path class="cls-27" d="M1148.05,1508s-3.41,66,83.25,56.43c47.09-5.21,123.13-49.12,123.13-49.12S1156.25,1514.78,1148.05,1508Z"/><path class="cls-5" d="M1189.83,1524.41l.78,0,339.71-.37a15,15,0,1,0,0-30.09l-339.71.37a15,15,0,0,0-.75,30.07Z"/><path class="cls-5" d="M1835.7,1219.23H1552.79a54,54,0,0,0-48.77,30.6l-130.79,274.4h351.59a32.75,32.75,0,0,0,30.47-20.51l101.42-253.92C1862.57,1235.13,1851.65,1219.23,1835.7,1219.23Z"/><path class="cls-28" d="M1636.39,1359.93c-6.13,18.84-1.6,37.15,10.11,40.88s26.19-8.52,32.32-27.37,1.6-37.15-10.11-40.88S1642.52,1341.08,1636.39,1359.93Z"/><path class="cls-29" d="M1775.1,1075.46c-131.91,5.48-195.27-91-253-147.5-76.16-74.58-156.79-44.2-156.79-44.2l61.28,200c119.09,139.29,267.21,105.17,357.27,73.9A166.11,166.11,0,0,0,1775.1,1075.46Z"/><path class="cls-30" d="M1965.91,1017.7l-45.55,18.52c-55,25.87-103,37.49-145.26,39.24a166.11,166.11,0,0,1,8.8,82.23c57.33-19.89,94.87-47.15,94.87-47.15C1982.56,1062.91,1965.91,1017.7,1965.91,1017.7Z"/><path class="cls-31" d="M2086.19,1092a32,32,0,0,0-16.38-22.31l-83.57-44.56s-.11-11.35,20.49-16.83,18.36-28.13,18.36-28.13-28.35,9.41-70,24.7c-23.83,8.74-38.65,27.11-47,41.24l19.3,32c52.1,22,106.25,31,161.9,30.47Z"/><path class="cls-32" d="M1381.65,943.14s27,42.54,40.28,142.89Z"/></g></g></g></svg>